<?xml version="1.0" encoding="utf-8"?><svg viewBox="0 0 686 487" xmlns="http://www.w3.org/2000/svg" xmlns:xlink="http://www.w3.org/1999/xlink"><style>:root>svg{display:none}:root>svg:target{display:block}</style><svg id="" viewBox="0 0 686 487" xmlns="http://www.w3.org/2000/svg"><style>.ast0{fill:#a11b10}</style><g id="aLivello_8"><path class="ast0" d="M592.5 289.5v-4h14.1c0-1.6.1-3.3.1-5h-14.1v-4h14.2c0-1.7 0-3.4-.1-5h-14.1v-4h14c-.1-1.7-.1-3.4-.2-5h-13.8v-4H606c-.2-2.5-.5-4.6-.8-6.2-2.2-10.9-52.5-7.3-45.4 20.3 6.5 25.3 17.3 27.9 19.1 28.1-5.6-.6-102.1-11.6-116.6-4.4 0 0 1.6 18.5 6.9 20.8 5.2 2.3 72.2-3.8 87.5-4.5 15.3-.6 44.3-.2 47.4-6.2 1.2-2.3 1.9-8.9 2.3-17h-13.9v.1zM95.1 289.5v-4H81c0-1.6-.1-3.3-.1-5H95v-4H80.9c0-1.7 0-3.4.1-5h14.1v-4h-14c.1-1.7.1-3.4.2-5h13.8v-4H81.6c.2-2.5.5-4.6.8-6.2 2.2-10.9 52.5-7.3 45.4 20.3-6.5 25.3-17.3 27.9-19.1 28.1 5.6-.6 102.1-11.6 116.6-4.4 0 0-1.6 18.5-6.9 20.8-5.2 2.3-72.2-3.8-87.5-4.5-15.3-.6-44.3-.2-47.4-6.2-1.2-2.3-1.9-8.9-2.3-17h13.9v.1z"/></g></svg><svg id="" viewBox="0 0 686 487" xmlns="http://www.w3.org/2000/svg"><style>.bst0{fill:#46a73e}</style><g id="bLivello_11"><path class="bst0" d="M313.3 392.2s26.2 1.7 29.6 5-3.6 45.1-4.1 54.7.9 27.7-7.6 29.5-61 .5-76.5-1.2-13.3-20.8 25.9-15.4c39.2 5.5 41.8.8 41.8.8s-19.2-64.3-9.1-73.4z"/><path class="bst0" d="M370.6 390.2s-24.7 7-27.1 11 14.9 43.2 17.8 52.4c2.9 9.2 6.2 27.2 14.7 27.1 8.6 0 58.6-12.1 73-17s7.4-23-28.8-9.6-39.9 9.4-39.9 9.4 2.2-66.5-9.7-73.3z"/></g></svg><svg id="" viewBox="0 0 686 487" xmlns="http://www.w3.org/2000/svg"><style>.cst0{fill:#e8cbd9}.cst1{fill:#9f446d}.cst2{fill:#f96aaa}</style><g id="cLivello_9"><path class="cst0" d="M261.5 138l25.5-16.9-90.3-83.2 31.5 120.6z"/><path class="cst1" d="M261.5 138l25.5-16.9-28.7-26.4c-9.7 6.5-18.7 14.6-26.5 24.2-3.8 4.6-7.2 9.5-10.2 14.4l6.6 25.2 33.3-20.5zM254.5 91.1l-4.7-4.3-32.8 29 1.8 6.9 35.7-31.6zm-11.2-10.3l-3.7-3.4-27.6 19 1.4 5.1 29.9-20.7zm-11.4-10.4l-3.8-3.5-20.6 12.7 1.3 5 23.1-14.2zM219 58.5l-3.7-3.4-11.4 10.5 1.4 5.5L219 58.5zm-8.5-7.9l-3.8-3.4-6.5 4.5 1.4 5.1 8.9-6.2z"/><g><path class="cst0" d="M432.5 138L407 121.1l90.3-83.2-31.5 120.6z"/><path class="cst1" d="M432.5 138L407 121.1l28.7-26.4c9.7 6.5 18.7 14.6 26.5 24.2 3.8 4.6 7.2 9.5 10.2 14.4l-6.6 25.2-33.3-20.5zM439.5 91.1l4.6-4.3 32.8 29-1.8 6.9-35.6-31.6zm11.3-10.3l3.7-3.4 27.6 19-1.4 5.1-29.9-20.7zm11.3-10.4l3.8-3.5 20.5 12.7-1.3 5-23-14.2zM475 58.5l3.6-3.4L490 65.6l-1.4 5.5L475 58.5zm8.5-7.9l3.8-3.4 6.5 4.5-1.3 5.1-9-6.2z"/></g><g><path class="cst1" d="M187 275c-40.9 231.5 362.9 231.5 321.9 0C461.2 5 234.8 5 187 275z"/><path class="cst2" d="M187 275c-7.1 40.5-.7 73.9 14.6 100.2 29.7 25.6 67.3 40.8 108.1 40.8C406 416 484 331.3 484 226.9c0-19.4-2.7-38-7.6-55.6C396.9 11.2 227.6 45.8 187 275z"/><path class="cst1" d="M348 117.3c35 0 63.3 1.2 63.3 2.7 0 1.4-28.3 2.6-63.3 2.6s-63.4-1.2-63.4-2.6c.1-1.5 28.4-2.7 63.4-2.7zM348 130.6c35 0 63.3 1.1 63.3 2.6s-28.3 2.6-63.3 2.6-63.4-1.1-63.4-2.6c.1-1.5 28.4-2.6 63.4-2.6zM227.7 324.5c-2-6.4-8.9-10-15.3-8-6.5 2.1-10 8.9-8 15.4s8.9 10 15.3 8c6.5-2 10.1-8.9 8-15.4zM248.4 329c-1.2-3.9-5.3-6-9.2-4.8s-6 5.3-4.7 9.2c1.2 3.9 5.3 6 9.2 4.8 3.7-1.3 5.9-5.4 4.7-9.2zM228.5 304.7c-.8-2.7-3.8-4.2-6.5-3.4-2.7.9-4.2 3.8-3.4 6.5.9 2.8 3.8 4.3 6.5 3.4 2.8-.8 4.3-3.7 3.4-6.5z"/><g><path class="cst1" d="M372.6 363.3c-6.5 1.9-10.2 8.8-8.2 15.2 1.9 6.5 8.7 10.2 15.2 8.2 6.5-1.9 10.2-8.8 8.2-15.2-1.9-6.5-8.8-10.2-15.2-8.2zM377.3 342.7c-3.9 1.1-6.1 5.3-4.9 9.1 1.1 3.9 5.3 6.1 9.1 5 3.9-1.1 6.1-5.3 5-9.1-1.3-4-5.4-6.2-9.2-5zM352.8 362.2c-2.8.8-4.3 3.7-3.5 6.5s3.7 4.3 6.5 3.5 4.3-3.8 3.5-6.5c-.9-2.8-3.8-4.4-6.5-3.5z"/></g><g><path class="cst1" d="M250.4 217.1c1-6.7-3.6-12.9-10.3-13.9s-12.9 3.6-13.9 10.3 3.6 12.9 10.3 13.9c6.6 1 12.8-3.6 13.9-10.3zM267 230.1c.6-4-2.1-7.8-6.1-8.3-4-.6-7.8 2.1-8.3 6.1-.6 4 2.1 7.8 6.1 8.3 3.9.7 7.7-2.1 8.3-6.1zM259.8 199.6c.5-2.8-1.5-5.5-4.3-5.9-2.9-.4-5.5 1.5-5.9 4.4-.4 2.8 1.5 5.5 4.4 5.9 2.7.5 5.4-1.5 5.8-4.4z"/></g><g><path class="cst1" d="M446.8 200.2c-3.4-5.8-1.5-13.3 4.4-16.7 5.8-3.4 13.3-1.4 16.7 4.4 3.4 5.8 1.5 13.3-4.4 16.7-5.8 3.4-13.3 1.5-16.7-4.4zM436.2 218.5c-2-3.5-.9-8 2.7-10.1 3.5-2 8-.8 10 2.7s.9 8-2.7 10.1c-3.5 1.9-8 .7-10-2.7zM431.6 187.5c-1.5-2.5-.6-5.7 1.9-7.1 2.5-1.4 5.7-.6 7.1 1.9 1.5 2.5.6 5.7-1.9 7.1s-5.6.6-7.1-1.9z"/></g></g></g></svg><svg id="" viewBox="0 0 686 487" xmlns="http://www.w3.org/2000/svg"><style>.dst0{fill:#424042}.dst1{fill:#ebd8df}.dst2{fill:#82387f}</style><g id="dLivello_11"><path class="dst0" d="M239.7 248.9c-.4 62.4 45.8 113.4 103.2 113.8 57.4.4 104.3-49.9 104.7-112.4l-207.9-1.4z"/><path class="dst1" d="M414.2 250l-70.6-.5-70.6-.5s-2.1 22.2.8 31l14.6-19.3 55.1 2.3 55.1-1.6L413 281c3-8.7 1.2-31 1.2-31z"/><path class="dst2" d="M286.9 344.3c16.1 11.4 35.3 18.2 56 18.3 20.7.1 39.9-6.4 56.2-17.6-6.8-24.6-29-42.9-55.8-43.1-26.8-.1-49.3 17.9-56.4 42.4z"/></g></svg><svg id="" viewBox="0 0 686 487" xmlns="http://www.w3.org/2000/svg"><style>.est0{fill:#a11b10}.est1{fill:#eecec7}.est2{fill:#fff}</style><g id="eLivello_10"><path class="est0" d="M401 131.3c12.1 0 22 9.8 22 21.9 0 12.1-9.8 22-22 22s-22-9.8-22-22c.1-12.1 9.9-21.9 22-21.9z"/><path class="est1" d="M422.8 156.6c.2 1 .2 2.2.2 3.3 0 12.1-9.8 22-22 22s-22-9.8-22-22c0-1.1.1-2.3.2-3.3 1.6 10.6 10.7 18.6 21.7 18.6 11.2 0 20.3-8.1 21.9-18.6z"/><path class="est2" d="M395.8 140.2c5 0 9 4.1 9 9.1s-4.1 9.1-9 9.1c-5 0-9.1-4.1-9.1-9.1 0-5.1 4.1-9.1 9.1-9.1z"/><g><path class="est0" d="M287.7 131.6c12.1 0 22 9.8 22 21.9 0 12.1-9.8 22-22 22-12.1 0-22-9.8-22-22 0-12 9.8-21.9 22-21.9z"/><path class="est1" d="M309.4 156.9c.2 1 .2 2.2.2 3.3 0 12.1-9.8 22-22 22-12.1 0-22-9.8-22-22 0-1.1.1-2.3.2-3.3 1.6 10.6 10.7 18.6 21.7 18.6 11.2 0 20.3-8 21.9-18.6z"/><path class="est2" d="M282.4 140.5c5 0 9.1 4.1 9.1 9.1s-4.1 9.1-9.1 9.1-9-4.1-9-9.1c-.1-5 4-9.1 9-9.1z"/></g></g></svg></svg>