<?xml version="1.0" encoding="utf-8"?><svg viewBox="0 0 686 487" xmlns="http://www.w3.org/2000/svg" xmlns:xlink="http://www.w3.org/1999/xlink"><style>:root>svg{display:none}:root>svg:target{display:block}</style><svg id="" viewBox="0 0 686 487" xmlns="http://www.w3.org/2000/svg"><style>.ast0{fill:#1e7794}</style><g id="aLivello_7"><path class="ast0" d="M479.1 320.7l97.3-85.3 40.1 13.7 39.3-44.5-42.2 26.9 34.2-48.4-49.2 31.7 19.7-30-35.5 19.3-15.5 21.5L466 304.8zM210.2 320.7l-87.8-94.9-41.3 9.4-34.4-48.4L85.9 218 57 166.3l45.5 36.6L86.1 171l33.3 22.9 13.2 23.1 92.4 89.3z"/></g></svg><svg id="" viewBox="0 0 686 487" xmlns="http://www.w3.org/2000/svg"><style>.bst0{fill:#82387f}</style><g id="bLivello_8"><path class="bst0" d="M301.8 390.3s18 1.4 20.3 4.6-2.9 43.5-3.4 52.7c-.4 9.2.3 26.7-5.5 28.5s-41.9 1-52.5-.5-7.7-31.8 19.1-26.9c26.9 4.9 27.6 12.3 27.6 12.3s-12.6-61.8-5.6-70.7zM380.6 391.7s-17.9.7-20.1 3.8c-2.1 3.1 5.5 43.6 6.4 52.9 1 9.2 1.2 26.7 7.2 28.7 5.9 2 42 2.6 52.6 1.4 10.5-1.2 5.9-31.6-20.7-27.7s-26.9 11.3-26.9 11.3 9-61.2 1.5-70.4z"/></g></svg><svg id="" viewBox="0 0 686 487" xmlns="http://www.w3.org/2000/svg"><style>.cst0{opacity:.5;fill:#d4db44;enable-background:new}.cst1{fill:#d7e6ed}.cst2{fill:#31c2f1}.cst3{opacity:.4}.cst4{fill:#1e7794}</style><g id="cLivello_11"><path class="cst0" d="M487.2 98.6c1.8 13.8-5.5 26.2-16.4 27.7s-21.3-8.6-23.1-22.4c-1.9-13.8 5.5-26.2 16.4-27.7s21.2 8.6 23.1 22.4z"/><path class="cst1" d="M493 8.4c-2.6 2.2 1.2 53.4-12.2 60.2-13.4 6.8-34.2 13.1-31.7 30.7 2.4 17.6 20.8 35.2 51.3 1.1 30.5-34.1-.7-97.7-7.4-92z"/><path class="cst2" d="M510.8 40.2C506.1 20.4 496.4 5.5 493 8.4c-1.5 1.3-.9 18.3-2.6 34 4.4 2 11.6 3.4 20.4-2.2zM487.4 58.4c-1.5 4.9-3.7 8.6-6.6 10.1-1.7.9-3.6 1.7-5.4 2.6 11.4 5.5 26.8 6.5 36.5 6.4 1.4-6.3 1.9-12.8 1.6-19.2-9.4 2.9-19.4 1.7-26.1.1zM460.6 78.8c-4.9 3.2-9 7-10.7 11.9 10.9 8 28.1 14.7 41 18.9 3-2.6 6.2-5.6 9.5-9.3 2.3-2.5 4.1-5.2 5.8-8-22.8-2.1-38.4-9.4-45.6-13.5z"/><g class="cst3"><path class="cst4" d="M492.2 90.3c-6.2 15.2-21.4 28.3-34.3 14.5-13-13.8 7.5-28.8 7.5-28.8-9.6 5.1-17.9 11.8-16.3 23.2 2.4 17.6 20.8 35.2 51.3 1.1 11.3-12.6 14.1-29.2 12.9-44.9-3.2 28.2-14.9 19.6-21.1 34.9z"/></g><g><path class="cst0" d="M204.1 93.9c-1.9 13.8 5.5 26.2 16.4 27.7s21.3-8.6 23.1-22.4-5.5-26.2-16.4-27.7c-10.9-1.4-21.2 8.6-23.1 22.4z"/><path class="cst1" d="M198.3 3.7c2.6 2.2-1.2 53.4 12.2 60.2s34.2 13.1 31.8 30.7-20.8 35.2-51.3 1.1.6-97.7 7.3-92z"/><path class="cst2" d="M180.5 35.5c4.7-19.8 14.4-34.7 17.8-31.8 1.5 1.3.9 18.3 2.6 34-4.3 2-11.5 3.4-20.4-2.2zM203.9 53.8c1.5 4.9 3.7 8.6 6.7 10.1 1.7.9 3.6 1.7 5.5 2.6-11.4 5.5-26.8 6.5-36.5 6.4-1.4-6.3-1.9-12.8-1.6-19.2 9.2 2.8 19.2 1.6 25.9.1zM230.8 74.1c4.9 3.2 8.9 7 10.7 11.9-10.9 8-28.1 14.7-41 18.9-3-2.6-6.2-5.6-9.5-9.3-2.3-2.5-4.2-5.2-5.8-8 22.7-2.1 38.3-9.3 45.6-13.5z"/><g class="cst3"><path class="cst4" d="M199.2 85.6c6.2 15.2 21.4 28.3 34.3 14.5 13-13.8-7.5-28.8-7.5-28.8 9.6 5.1 17.9 11.8 16.3 23.2-2.4 17.6-20.8 35.2-51.3 1.1-11.3-12.6-14.1-29.2-12.9-44.9 3.1 28.3 14.8 19.6 21.1 34.9z"/></g></g><g><path class="cst4" d="M345.7 32.5c108.9 0 197.1 85.4 197.1 190.8 0 44-15.3 84.5-41.2 116.8 19.9 6.2 34.3 24.4 34.3 45.7 0 26.6-22.3 48.1-49.7 48.1-14.1 0-26.8-5.7-35.9-14.8-.1 19.1-16.1 34.7-35.9 34.7-14 0-26.1-7.8-32.1-19.1-4.8 1.9-9.9 2.9-15.4 2.9-7.1 0-13.7-1.7-19.5-4.7-4.5 14.9-18.8 25.8-35.7 25.8-12.4 0-23.4-5.9-30.1-14.9-9.4 9.9-22.9 16.1-37.9 16.1-28.4 0-51.4-22.3-51.4-49.7 0-18 9.9-33.8 24.7-42.6-41.9-35-68.4-86.7-68.4-144.5.1-105.2 88.3-190.6 197.1-190.6z"/><path class="cst2" d="M345.7 32.5c40.9 0 78.9 12 110.4 32.7 19.3 34.8 30.3 74.5 30.3 116.7 0 136.3-114.2 246.8-255 246.8-12.4 0-24.5-.8-36.3-2.5-1.8-5.1-2.7-10.4-2.7-16 0-18 9.9-33.8 24.7-42.6-41.9-35-68.4-86.7-68.4-144.5 0-105.2 88.2-190.6 197-190.6z"/></g></g></svg><svg id="" viewBox="0 0 686 487" xmlns="http://www.w3.org/2000/svg"><style>.dst0{fill:#82387f}.dst1{fill:#ebd8df}</style><g id="dLivello_9"><path class="dst0" d="M343.9 266.4c68 0 123.2 1.1 123.2 2.5s-55.2 2.4-123.2 2.4c-68.1 0-123.3-1.1-123.3-2.4.2-1.4 55.2-2.5 123.3-2.5z"/><path class="dst1" d="M228.4 269.4l15.6 50.4 12.8-36.4 24.1 57.9 30.4-56.2 18.2 34.2 16-34.2 22.6 38.6 23.1-40.8 18.8 49.6 25.4-54 17.6 18.7 8.2-27.2z"/></g></svg><svg id="" viewBox="0 0 686 487" xmlns="http://www.w3.org/2000/svg"><style>.est0{fill:#fff}.est1{fill:#ececd2}.est2{fill:#46a73e}</style><g id="eLivello_9"><path class="est0" d="M413.3 146.2c.3 1.9.4 3.9.4 5.9 0 28.2-29.7 51.2-66.4 51.2s-66.4-22.9-66.4-51.2c0-2 .2-4 .4-5.9h132z"/><path class="est1" d="M397.7 146.2c.2 1.5.4 3 .4 4.5 0 21.6-22.7 39.1-50.7 39.1s-50.7-17.5-50.7-39.1c0-1.5.1-3 .3-4.5h100.7z"/><path class="est2" d="M383.6 146.2c.2 1 .3 2.1.3 3.2 0 15.6-16.4 28.1-36.5 28.1-20.2 0-36.6-12.6-36.6-28.1 0-1.1.1-2.2.3-3.2h72.5z"/><path class="est0" d="M334.4 146.2c5.3 0 9.6 4.3 9.6 9.6s-4.3 9.6-9.6 9.6-9.6-4.3-9.6-9.6 4.3-9.6 9.6-9.6z"/></g></svg></svg>