<?xml version="1.0" encoding="utf-8"?><svg viewBox="0 0 686 487" xmlns="http://www.w3.org/2000/svg" xmlns:xlink="http://www.w3.org/1999/xlink"><style>:root>svg{display:none}:root>svg:target{display:block}</style><svg id="" viewBox="0 0 686 487" xmlns="http://www.w3.org/2000/svg"><style>.ast0{fill:#f96aaa}.ast1{fill:#9f446d}.ast2{fill:#e8cbd9}</style><g id="aLivello_9"><path class="ast0" d="M205.2 299.1l-36.3 59.1-22.7-.6-13.1 28.9 17.3-20.4-9.8 30.2 20.2-24-5.4 18.5 15.2-15.5 4.5-13.5 39.4-56.6z"/><path class="ast1" d="M158.2 381.2l-2.8 9.6 15.2-15.5 4.5-13.5 39.4-56.6-5.3-3.5-38.1 58.9-7.5 16.8z"/><path class="ast2" d="M227.4 305.9c-2.1 3.6-10.1 2.6-17.8-2s-12.2-11.2-10.1-14.7c.2-.3.4-.5.5-.7 3.3 3.9 8 7.8 13.7 11.3 4.7 2.8 9.5 4.9 13.7 6.1z"/><g><path class="ast0" d="M487.6 300.8l15.4 67.7 21.7 6.6 3.1 31.7-9.9-25-.3 31.8-11.4-29.2-1 19.3-9.3-19.6.1-14.3-19.2-66.2z"/><path class="ast1" d="M505.7 393.7l-.5 10-9.3-19.6.1-14.3-19.2-66.2 6.2-1.6 17.1 68 1.8 18.3z"/><path class="ast2" d="M464.4 300.1c.9 4.1 8.7 5.7 17.5 3.8 8.8-1.9 15.2-6.7 14.3-10.6-.1-.3-.2-.6-.3-.8-4.3 2.6-10.1 4.9-16.6 6.3-5.3 1.1-10.4 1.5-14.9 1.3z"/></g></g></svg><svg id="" viewBox="0 0 686 487" xmlns="http://www.w3.org/2000/svg"><style>.bst0{fill:#82387f}.bst1{fill:#ebd8df}</style><g id="bLivello_11"><path class="bst0" d="M313.3 392.2s26.2 1.7 29.6 5-3.6 45.1-4.1 54.7.9 27.7-7.6 29.5-61 .5-76.5-1.2-13.3-20.8 25.9-15.4c39.2 5.5 41.8.8 41.8.8s-19.2-64.3-9.1-73.4z"/><path class="bst0" d="M370.6 390.2s-24.7 7-27.1 11 14.9 43.2 17.8 52.4c2.9 9.2 6.2 27.2 14.7 27.1 8.6 0 58.6-12.1 73-17s7.4-23-28.8-9.6-39.9 9.4-39.9 9.4 2.2-66.5-9.7-73.3z"/><path class="bst1" d="M258.5 467.6c-3.6-4.9-10.3-9.1-13.2-7s-.8 9.8 2.7 14.7l10.5-7.7zM453.3 457.1c2.5-5.5 3-13.4-.2-14.9-3.3-1.5-9 4-11.6 9.4l11.8 5.5z"/></g></svg><svg id="" viewBox="0 0 686 487" xmlns="http://www.w3.org/2000/svg"><style>.cst0{fill:#d7e9f3}.cst1{fill:#07235b}.cst2{fill:#145cee}</style><g id="cLivello_9"><path class="cst0" d="M261.5 138l25.5-16.9-90.3-83.2 31.5 120.6z"/><path class="cst1" d="M261.5 138l25.5-16.9-28.7-26.4c-9.7 6.5-18.7 14.6-26.5 24.2-3.8 4.6-7.2 9.5-10.2 14.4l6.6 25.2 33.3-20.5zM254.5 91.1l-4.7-4.3-32.8 29 1.8 6.9 35.7-31.6zm-11.2-10.3l-3.7-3.4-27.6 19 1.4 5.1 29.9-20.7zm-11.4-10.4l-3.8-3.5-20.6 12.7 1.3 5 23.1-14.2zM219 58.5l-3.7-3.4-11.4 10.5 1.4 5.5L219 58.5zm-8.5-7.9l-3.8-3.4-6.5 4.5 1.4 5.1 8.9-6.2z"/><g><path class="cst0" d="M432.5 138L407 121.1l90.3-83.2-31.5 120.6z"/><path class="cst1" d="M432.5 138L407 121.1l28.7-26.4c9.7 6.5 18.7 14.6 26.5 24.2 3.8 4.6 7.2 9.5 10.2 14.4l-6.6 25.2-33.3-20.5zM439.5 91.1l4.6-4.3 32.8 29-1.8 6.9-35.6-31.6zm11.3-10.3l3.7-3.4 27.6 19-1.4 5.1-29.9-20.7zm11.3-10.4l3.8-3.5 20.5 12.7-1.3 5-23-14.2zM475 58.5l3.6-3.4L490 65.6l-1.4 5.5L475 58.5zm8.5-7.9l3.8-3.4 6.5 4.5-1.3 5.1-9-6.2z"/></g><g><path class="cst1" d="M187 275c-40.9 231.5 362.9 231.5 321.9 0C461.2 5 234.8 5 187 275z"/><path class="cst2" d="M187 275c-7.1 40.5-.7 73.9 14.6 100.2 29.7 25.6 67.3 40.8 108.1 40.8C406 416 484 331.3 484 226.9c0-19.4-2.7-38-7.6-55.6C396.9 11.2 227.6 45.8 187 275z"/><path class="cst1" d="M348 117.3c35 0 63.3 1.2 63.3 2.7 0 1.4-28.3 2.6-63.3 2.6s-63.4-1.2-63.4-2.6c.1-1.5 28.4-2.7 63.4-2.7zM348 130.6c35 0 63.3 1.1 63.3 2.6s-28.3 2.6-63.3 2.6-63.4-1.1-63.4-2.6c.1-1.5 28.4-2.6 63.4-2.6zM227.7 324.5c-2-6.4-8.9-10-15.3-8-6.5 2.1-10 8.9-8 15.4s8.9 10 15.3 8c6.5-2 10.1-8.9 8-15.4zM248.4 329c-1.2-3.9-5.3-6-9.2-4.8s-6 5.3-4.7 9.2c1.2 3.9 5.3 6 9.2 4.8 3.7-1.3 5.9-5.4 4.7-9.2zM228.5 304.7c-.8-2.7-3.8-4.2-6.5-3.4-2.7.9-4.2 3.8-3.4 6.5.9 2.8 3.8 4.3 6.5 3.4 2.8-.8 4.3-3.7 3.4-6.5z"/><g><path class="cst1" d="M372.6 363.3c-6.5 1.9-10.2 8.8-8.2 15.2 1.9 6.5 8.7 10.2 15.2 8.2 6.5-1.9 10.2-8.8 8.2-15.2-1.9-6.5-8.8-10.2-15.2-8.2zM377.3 342.7c-3.9 1.1-6.1 5.3-4.9 9.1 1.1 3.9 5.3 6.1 9.1 5 3.9-1.1 6.1-5.3 5-9.1-1.3-4-5.4-6.2-9.2-5zM352.8 362.2c-2.8.8-4.3 3.7-3.5 6.5s3.7 4.3 6.5 3.5 4.3-3.8 3.5-6.5c-.9-2.8-3.8-4.4-6.5-3.5z"/></g><g><path class="cst1" d="M250.4 217.1c1-6.7-3.6-12.9-10.3-13.9s-12.9 3.6-13.9 10.3 3.6 12.9 10.3 13.9c6.6 1 12.8-3.6 13.9-10.3zM267 230.1c.6-4-2.1-7.8-6.1-8.3-4-.6-7.8 2.1-8.3 6.1-.6 4 2.1 7.8 6.1 8.3 3.9.7 7.7-2.1 8.3-6.1zM259.8 199.6c.5-2.8-1.5-5.5-4.3-5.9-2.9-.4-5.5 1.5-5.9 4.4-.4 2.8 1.5 5.5 4.4 5.9 2.7.5 5.4-1.5 5.8-4.4z"/></g><g><path class="cst1" d="M446.8 200.2c-3.4-5.8-1.5-13.3 4.4-16.7 5.8-3.4 13.3-1.4 16.7 4.4 3.4 5.8 1.5 13.3-4.4 16.7-5.8 3.4-13.3 1.5-16.7-4.4zM436.2 218.5c-2-3.5-.9-8 2.7-10.1 3.5-2 8-.8 10 2.7s.9 8-2.7 10.1c-3.5 1.9-8 .7-10-2.7zM431.6 187.5c-1.5-2.5-.6-5.7 1.9-7.1 2.5-1.4 5.7-.6 7.1 1.9 1.5 2.5.6 5.7-1.9 7.1s-5.6.6-7.1-1.9z"/></g></g></g></svg><svg id="" viewBox="0 0 686 487" xmlns="http://www.w3.org/2000/svg"><style>.dst0{fill:#d03c0f}.dst1{fill:#ede2ce}</style><g id="dLivello_5"><path class="dst0" d="M408 319.8c.4-38.1-28-64.1-63.2-64.5-35.3-.3-64.1 25.1-64.5 63.2l127.7 1.3z"/><path class="dst1" d="M303.1 318.8c.1-11.7 6-26.5 13.1-26.4s12.7 14.9 12.6 26.7l-25.7-.3zM362.7 319.4c.1-11.7 6-26.5 13.1-26.4s12.7 14.9 12.6 26.7l-25.7-.3zM332.9 319.1c.1-11.7 6-26.5 13.1-26.4s12.7 14.9 12.6 26.7l-25.7-.3z"/></g></svg><svg id="" viewBox="0 0 686 487" xmlns="http://www.w3.org/2000/svg"><style>.est0{fill:none;stroke:#ec311e;stroke-width:23;stroke-linecap:round;stroke-linejoin:round;stroke-miterlimit:10}.est1{fill:#fff}.est2{fill:#ec311e}.est3{fill:#3f401b}.est4{fill:#eecec7}.est5,.est6{fill:none;stroke:#a11b10;stroke-width:3;stroke-miterlimit:10}.est6{stroke-width:2}</style><g id="eLivello_5"><path class="est0" d="M412.4 107L346 173.5l-69.1-67.4"/><path class="est1" d="M265.8 81.4c0 3.2-2.5 5.8-5.7 5.8s-5.8-2.5-5.8-5.7 2.5-5.8 5.7-5.8c3.1-.1 5.7 2.5 5.8 5.7zM300.7 27.4C291.4 17.2 278 10.9 263.2 11c-14.5.1-27.5 6.4-36.5 16.4h74z"/><path class="est1" d="M220.8 35.3c-4.6 7.7-7.3 16.7-7.2 26.3.3 27.7 22.9 49.9 50.5 49.6 27.7-.3 49.9-22.9 49.6-50.5-.1-9.3-2.7-18-7.2-25.4h-85.7z"/><path class="est2" d="M301.5 35.3c5 7.2 7.9 16 8 25.4.2 25.3-20.1 46-45.4 46.3-25.3.2-46-20.1-46.3-45.4-.1-9.7 2.9-18.8 8-26.3h-9.9c-4.3 7.8-6.7 16.8-6.6 26.4.3 29.9 24.9 54.1 54.8 53.8 29.9-.3 54.1-24.9 53.8-54.8-.1-9.2-2.5-17.8-6.6-25.3h-9.8v-.1z"/><path class="est3" d="M282.9 35.3h-25.5c-11.8 5-20.1 16.8-19.9 30.4.2 18.1 15 32.6 33 32.4 18.1-.2 32.6-15 32.4-33-.2-13.5-8.4-24.9-20-29.8z"/><path class="est4" d="M290.1 58.4c.1 8.7-6.9 15.7-15.5 15.8-8.7.1-15.7-6.9-15.8-15.5-.1-8.7 6.9-15.7 15.5-15.8s15.7 6.8 15.8 15.5z"/><ellipse transform="rotate(-81.327 255.609 74.998)" class="est4" cx="255.6" cy="75" rx="5.8" ry="5.8"/><path class="est1" d="M422.9 82c0 3.2 2.6 5.8 5.8 5.7 3.2 0 5.8-2.6 5.7-5.8 0-3.2-2.6-5.8-5.8-5.7-3.1 0-5.7 2.6-5.7 5.8z"/><path class="est1" d="M382.1 35.3c-4.9 7.8-7.7 17-7.6 26.9.3 27.7 22.9 49.9 50.5 49.6 27.7-.3 49.9-22.9 49.6-50.5-.1-9.5-2.8-18.4-7.5-26h-85zM461.1 27.4c-9.2-9.8-22.4-15.9-37-15.8-14.2.1-27 6.2-36 15.8h73z"/><path class="est2" d="M462.1 35.3c5.2 7.4 8.3 16.3 8.4 26 .2 25.3-20.1 46-45.4 46.3-25.3.2-46-20.1-46.3-45.4-.1-10 3-19.3 8.4-26.9h-10c-4.5 8-7 17.2-6.9 27 .3 29.9 24.9 54.1 54.8 53.8s54.1-24.9 53.8-54.8c-.1-9.4-2.6-18.2-6.9-25.9l-9.9-.1z"/><path class="est3" d="M429.2 35.3h-21.9c-12.8 4.5-21.9 16.8-21.7 31.1.2 18.1 15 32.6 33 32.4 18.1-.2 32.6-15 32.4-33-.2-14.1-9.3-26.1-21.8-30.5z"/><path class="est4" d="M398.2 59.4c.1 8.7 7.2 15.6 15.8 15.5 8.7-.1 15.6-7.2 15.5-15.8-.1-8.7-7.2-15.6-15.8-15.5-8.7.1-15.6 7.2-15.5 15.8z"/><circle class="est4" cx="433" cy="75.5" r="5.8"/><path class="est5" d="M212 34.7h106.7M371.3 34.7H478"/><path class="est6" d="M215.8 34.3v-20M224.8 34.3v-20M233.8 34.3v-20M242.8 34.3v-20M251.8 34.3v-20M260.8 34.3v-20M269.8 34.3v-20M278.8 34.3v-20M287.8 34.3v-20M296.8 34.3v-20M305.8 34.3v-20M314.8 34.3v-20M375.3 34.3v-20M384.3 34.3v-20M393.3 34.3v-20M402.3 34.3v-20M411.3 34.3v-20M420.3 34.3v-20M429.3 34.3v-20M438.3 34.3v-20M447.3 34.3v-20M456.3 34.3v-20M465.3 34.3v-20M474.3 34.3v-20"/><g><circle cx="330.5" cy="221" r="6"/><circle cx="356.5" cy="221" r="6"/></g></g></svg></svg>