<?xml version="1.0" encoding="utf-8"?><svg viewBox="0 0 686 487" xmlns="http://www.w3.org/2000/svg" xmlns:xlink="http://www.w3.org/1999/xlink"><style>:root>svg{display:none}:root>svg:target{display:block}</style><svg id="" viewBox="0 0 686 487" xmlns="http://www.w3.org/2000/svg"><style>.ast0{fill:#07235b}</style><g id="aLivello_8"><path class="ast0" d="M592.5 289.5v-4h14.1c0-1.6.1-3.3.1-5h-14.1v-4h14.2c0-1.7 0-3.4-.1-5h-14.1v-4h14c-.1-1.7-.1-3.4-.2-5h-13.8v-4H606c-.2-2.5-.5-4.6-.8-6.2-2.2-10.9-52.5-7.3-45.4 20.3 6.5 25.3 17.3 27.9 19.1 28.1-5.6-.6-102.1-11.6-116.6-4.4 0 0 1.6 18.5 6.9 20.8 5.2 2.3 72.2-3.8 87.5-4.5 15.3-.6 44.3-.2 47.4-6.2 1.2-2.3 1.9-8.9 2.3-17h-13.9v.1zM95.1 289.5v-4H81c0-1.6-.1-3.3-.1-5H95v-4H80.9c0-1.7 0-3.4.1-5h14.1v-4h-14c.1-1.7.1-3.4.2-5h13.8v-4H81.6c.2-2.5.5-4.6.8-6.2 2.2-10.9 52.5-7.3 45.4 20.3-6.5 25.3-17.3 27.9-19.1 28.1 5.6-.6 102.1-11.6 116.6-4.4 0 0-1.6 18.5-6.9 20.8-5.2 2.3-72.2-3.8-87.5-4.5-15.3-.6-44.3-.2-47.4-6.2-1.2-2.3-1.9-8.9-2.3-17h13.9v.1z"/></g></svg><svg id="" viewBox="0 0 686 487" xmlns="http://www.w3.org/2000/svg"><style>.bst0{fill:#e8cbd9}.bst1{fill:#9f446d}</style><g id="bLivello_9"><path class="bst0" d="M311.6 414.8h24.5v67h-60.3s23.3-19.1 35.8-26.4v-40.6z"/><path class="bst1" d="M324.9 414.8h11.2v67h-11.2zM376.4 414.8h-24.5v67h60.3s-23.3-19.1-35.8-26.4v-40.6z"/><path class="bst0" d="M363.1 414.8h-11.2v67h11.2z"/></g></svg><svg id="" viewBox="0 0 686 487" xmlns="http://www.w3.org/2000/svg"><style>.cst0{fill:#ede2ce}.cst1{fill:#d03c0f}.cst2{fill:#f27825}</style><g id="cLivello_9"><path class="cst0" d="M261.5 138l25.5-16.9-90.3-83.2 31.5 120.6z"/><path class="cst1" d="M261.5 138l25.5-16.9-28.7-26.4c-9.7 6.5-18.7 14.6-26.5 24.2-3.8 4.6-7.2 9.5-10.2 14.4l6.6 25.2 33.3-20.5zM254.5 91.1l-4.7-4.3-32.8 29 1.8 6.9 35.7-31.6zm-11.2-10.3l-3.7-3.4-27.6 19 1.4 5.1 29.9-20.7zm-11.4-10.4l-3.8-3.5-20.6 12.7 1.3 5 23.1-14.2zM219 58.5l-3.7-3.4-11.4 10.5 1.4 5.5L219 58.5zm-8.5-7.9l-3.8-3.4-6.5 4.5 1.4 5.1 8.9-6.2z"/><g><path class="cst0" d="M432.5 138L407 121.1l90.3-83.2-31.5 120.6z"/><path class="cst1" d="M432.5 138L407 121.1l28.7-26.4c9.7 6.5 18.7 14.6 26.5 24.2 3.8 4.6 7.2 9.5 10.2 14.4l-6.6 25.2-33.3-20.5zM439.5 91.1l4.6-4.3 32.8 29-1.8 6.9-35.6-31.6zm11.3-10.3l3.7-3.4 27.6 19-1.4 5.1-29.9-20.7zm11.3-10.4l3.8-3.5 20.5 12.7-1.3 5-23-14.2zM475 58.5l3.6-3.4L490 65.6l-1.4 5.5L475 58.5zm8.5-7.9l3.8-3.4 6.5 4.5-1.3 5.1-9-6.2z"/></g><g><path class="cst1" d="M187 275c-40.9 231.5 362.9 231.5 321.9 0C461.2 5 234.8 5 187 275z"/><path class="cst2" d="M187 275c-7.1 40.5-.7 73.9 14.6 100.2 29.7 25.6 67.3 40.8 108.1 40.8C406 416 484 331.3 484 226.9c0-19.4-2.7-38-7.6-55.6C396.9 11.2 227.6 45.8 187 275z"/><path class="cst1" d="M348 117.3c35 0 63.3 1.2 63.3 2.7 0 1.4-28.3 2.6-63.3 2.6s-63.4-1.2-63.4-2.6c.1-1.5 28.4-2.7 63.4-2.7zM348 130.6c35 0 63.3 1.1 63.3 2.6s-28.3 2.6-63.3 2.6-63.4-1.1-63.4-2.6c.1-1.5 28.4-2.6 63.4-2.6zM227.7 324.5c-2-6.4-8.9-10-15.3-8-6.5 2.1-10 8.9-8 15.4s8.9 10 15.3 8c6.5-2 10.1-8.9 8-15.4zM248.4 329c-1.2-3.9-5.3-6-9.2-4.8s-6 5.3-4.7 9.2c1.2 3.9 5.3 6 9.2 4.8 3.7-1.3 5.9-5.4 4.7-9.2zM228.5 304.7c-.8-2.7-3.8-4.2-6.5-3.4-2.7.9-4.2 3.8-3.4 6.5.9 2.8 3.8 4.3 6.5 3.4 2.8-.8 4.3-3.7 3.4-6.5z"/><g><path class="cst1" d="M372.6 363.3c-6.5 1.9-10.2 8.8-8.2 15.2 1.9 6.5 8.7 10.2 15.2 8.2 6.5-1.9 10.2-8.8 8.2-15.2-1.9-6.5-8.8-10.2-15.2-8.2zM377.3 342.7c-3.9 1.1-6.1 5.3-4.9 9.1 1.1 3.9 5.3 6.1 9.1 5 3.9-1.1 6.1-5.3 5-9.1-1.3-4-5.4-6.2-9.2-5zM352.8 362.2c-2.8.8-4.3 3.7-3.5 6.5s3.7 4.3 6.5 3.5 4.3-3.8 3.5-6.5c-.9-2.8-3.8-4.4-6.5-3.5z"/></g><g><path class="cst1" d="M250.4 217.1c1-6.7-3.6-12.9-10.3-13.9s-12.9 3.6-13.9 10.3 3.6 12.9 10.3 13.9c6.6 1 12.8-3.6 13.9-10.3zM267 230.1c.6-4-2.1-7.8-6.1-8.3-4-.6-7.8 2.1-8.3 6.1-.6 4 2.1 7.8 6.1 8.3 3.9.7 7.7-2.1 8.3-6.1zM259.8 199.6c.5-2.8-1.5-5.5-4.3-5.9-2.9-.4-5.5 1.5-5.9 4.4-.4 2.8 1.5 5.5 4.4 5.9 2.7.5 5.4-1.5 5.8-4.4z"/></g><g><path class="cst1" d="M446.8 200.2c-3.4-5.8-1.5-13.3 4.4-16.7 5.8-3.4 13.3-1.4 16.7 4.4 3.4 5.8 1.5 13.3-4.4 16.7-5.8 3.4-13.3 1.5-16.7-4.4zM436.2 218.5c-2-3.5-.9-8 2.7-10.1 3.5-2 8-.8 10 2.7s.9 8-2.7 10.1c-3.5 1.9-8 .7-10-2.7zM431.6 187.5c-1.5-2.5-.6-5.7 1.9-7.1 2.5-1.4 5.7-.6 7.1 1.9 1.5 2.5.6 5.7-1.9 7.1s-5.6.6-7.1-1.9z"/></g></g></g></svg><svg id="" viewBox="0 0 686 487" xmlns="http://www.w3.org/2000/svg"><style>.dst0{fill:#82387f}.dst1{fill:#ebd8df}</style><g id="dLivello_3"><path class="dst0" d="M408 293.4c.4 38.1-28 64.1-63.2 64.5-35.3.3-64.1-25.1-64.5-63.2l127.7-1.3z"/><path class="dst1" d="M303.1 294.4c.1 11.7 6 26.5 13.1 26.4s12.7-14.9 12.6-26.7l-25.7.3zM362.7 293.8c.1 11.7 6 26.5 13.1 26.4s12.7-14.9 12.6-26.7l-25.7.3zM332.9 294.1c.1 11.7 6 26.5 13.1 26.4s12.7-14.9 12.6-26.7l-25.7.3z"/></g></svg><svg id="" viewBox="0 0 686 487" xmlns="http://www.w3.org/2000/svg"><style>.est0{fill:#fff}.est1{fill:#9f446d}</style><g id="eLivello_1_1_"><path class="est0" d="M413.5 169.6c0 38.1-30.9 68.9-68.9 68.9-38.1 0-68.9-30.9-68.9-68.9 0-38.1 30.9-68.9 68.9-68.9 38-.1 68.9 30.8 68.9 68.9z"/><path class="est1" d="M389.6 169.6c0 24.9-20.1 45-45 45s-45-20.1-45-45 20.1-45 45-45c24.8 0 45 20.1 45 45z"/><path class="est0" d="M366.1 160.2c0 11.9-9.7 21.6-21.6 21.6s-21.6-9.7-21.6-21.6c0-11.9 9.7-21.6 21.6-21.6 12 0 21.6 9.7 21.6 21.6zM332.4 191.6c0 4.4-3.6 8-8 8s-8-3.6-8-8 3.6-8 8-8 8 3.6 8 8z"/></g></svg></svg>