<?xml version="1.0" encoding="utf-8"?><svg viewBox="0 0 686 487" xmlns="http://www.w3.org/2000/svg" xmlns:xlink="http://www.w3.org/1999/xlink"><style>:root>svg{display:none}:root>svg:target{display:block}</style><svg id="" viewBox="0 0 686 487" xmlns="http://www.w3.org/2000/svg"><style>.ast0{fill:#9f446d}</style><g id="aLivello_7"><path class="ast0" d="M479.1 320.7l97.3-85.3 40.1 13.7 39.3-44.5-42.2 26.9 34.2-48.4-49.2 31.7 19.7-30-35.5 19.3-15.5 21.5L466 304.8zM210.2 320.7l-87.8-94.9-41.3 9.4-34.4-48.4L85.9 218 57 166.3l45.5 36.6L86.1 171l33.3 22.9 13.2 23.1 92.4 89.3z"/></g></svg><svg id="" viewBox="0 0 686 487" xmlns="http://www.w3.org/2000/svg"><style>.bst0{fill:#d03c0f}</style><g id="bLivello_11"><path class="bst0" d="M313.3 392.2s26.2 1.7 29.6 5-3.6 45.1-4.1 54.7.9 27.7-7.6 29.5-61 .5-76.5-1.2-13.3-20.8 25.9-15.4c39.2 5.5 41.8.8 41.8.8s-19.2-64.3-9.1-73.4z"/><path class="bst0" d="M370.6 390.2s-24.7 7-27.1 11 14.9 43.2 17.8 52.4c2.9 9.2 6.2 27.2 14.7 27.1 8.6 0 58.6-12.1 73-17s7.4-23-28.8-9.6-39.9 9.4-39.9 9.4 2.2-66.5-9.7-73.3z"/></g></svg><svg id="" viewBox="0 0 686 487" xmlns="http://www.w3.org/2000/svg"><style>.cst0{fill:#31c2f1}.cst1{fill:#1e7794}</style><g id="cLivello_3"><path class="cst0" d="M346.1 397.9c-5.8 56.9 71.6 53 67.9-2.2 11.2 20.4 28.8 42.4 54 35.8 31.5-9.8 13.9-31.7 13.7-55.4 36.4 13.9 68 13.6 42.3-30.4-2.4-4.5-4.9-8.7-7.4-12.9-1.3-2.1-2.5-4.1-3.8-6.2C506 317 501 306 495.1 296c-1-2.1-2-4.2-2.9-6.4-2.8-6.5-5.1-13.4-6.8-20.9-13.1-53.6-2.9-134.2-84.9-127.1l-116 1.1c-82.2-5.5-70.3 74.9-82.5 128.7-6 30.1-23.2 50.7-37.2 77.7-24.8 44.4 6.7 44.1 42.9 29.6.2 23.7-16.9 45.9 14.7 55.1 25.3 6.1 42.5-16.2 53.3-36.8-2.6 55.3 74.8 57.7 67.9.9h2.5z"/><path class="cst1" d="M523.5 348.2c-3.6-6.7-7.4-13-11.2-19.1-1.3-2-2.5-4.1-3.8-6.1s-2.5-4-3.7-6-2.4-4-3.6-6.1c-7-12.2-13.1-24.7-16.4-39.7-2.9-11.6-4.6-24.6-6.4-37.6C461 323 382.7 390.8 288.1 391.7c-46.3.4-89-15.3-122.8-41.8-.3.6-.6 1.1-.9 1.7-24.8 44.4 6.7 44.1 42.9 29.6.2 23.7-16.9 45.9 14.7 55.1 25.3 6.1 42.5-16.2 53.3-36.8-2.6 55.3 74.8 57.7 67.9.9h2.3c-5.8 56.9 71.6 53 67.9-2.2 11.2 20.4 28.8 42.4 54 35.8 31.5-9.8 13.9-31.7 13.7-55.4 36.5 13.8 68.1 13.5 42.4-30.4z"/></g></svg><svg id="" viewBox="0 0 686 487" xmlns="http://www.w3.org/2000/svg"><style>.dst0{fill:#fcb712}.dst1{fill:#f8f8e4}</style><g id="dLivello_3"><path class="dst0" d="M408 293.4c.4 38.1-28 64.1-63.2 64.5-35.3.3-64.1-25.1-64.5-63.2l127.7-1.3z"/><path class="dst1" d="M303.1 294.4c.1 11.7 6 26.5 13.1 26.4s12.7-14.9 12.6-26.7l-25.7.3zM362.7 293.8c.1 11.7 6 26.5 13.1 26.4s12.7-14.9 12.6-26.7l-25.7.3zM332.9 294.1c.1 11.7 6 26.5 13.1 26.4s12.7-14.9 12.6-26.7l-25.7.3z"/></g></svg><svg id="" viewBox="0 0 686 487" xmlns="http://www.w3.org/2000/svg"><style>.est0{fill:none;stroke:#a24e99;stroke-width:23;stroke-linecap:round;stroke-linejoin:round;stroke-miterlimit:10}.est1{fill:#fff}.est2{fill:#a24e99}.est3{fill:#3f401b}.est4{fill:#ebd8df}.est5,.est6{fill:none;stroke:#82387f;stroke-width:3;stroke-miterlimit:10}.est6{stroke-width:2}</style><g id="eLivello_5"><path class="est0" d="M412.4 107L346 173.5l-69.1-67.4"/><path class="est1" d="M265.8 81.4c0 3.2-2.5 5.8-5.7 5.8s-5.8-2.5-5.8-5.7 2.5-5.8 5.7-5.8c3.1-.1 5.7 2.5 5.8 5.7zM300.7 27.4C291.4 17.2 278 10.9 263.2 11c-14.5.1-27.5 6.4-36.5 16.4h74z"/><path class="est1" d="M220.8 35.3c-4.6 7.7-7.3 16.7-7.2 26.3.3 27.7 22.9 49.9 50.5 49.6 27.7-.3 49.9-22.9 49.6-50.5-.1-9.3-2.7-18-7.2-25.4h-85.7z"/><path class="est2" d="M301.5 35.3c5 7.2 7.9 16 8 25.4.2 25.3-20.1 46-45.4 46.3-25.3.2-46-20.1-46.3-45.4-.1-9.7 2.9-18.8 8-26.3h-9.9c-4.3 7.8-6.7 16.8-6.6 26.4.3 29.9 24.9 54.1 54.8 53.8 29.9-.3 54.1-24.9 53.8-54.8-.1-9.2-2.5-17.8-6.6-25.3h-9.8v-.1z"/><path class="est3" d="M282.9 35.3h-25.5c-11.8 5-20.1 16.8-19.9 30.4.2 18.1 15 32.6 33 32.4 18.1-.2 32.6-15 32.4-33-.2-13.5-8.4-24.9-20-29.8z"/><path class="est4" d="M290.1 58.4c.1 8.7-6.9 15.7-15.5 15.8-8.7.1-15.7-6.9-15.8-15.5-.1-8.7 6.9-15.7 15.5-15.8s15.7 6.8 15.8 15.5z"/><ellipse transform="rotate(-81.327 255.609 74.998)" class="est4" cx="255.6" cy="75" rx="5.8" ry="5.8"/><path class="est1" d="M422.9 82c0 3.2 2.6 5.8 5.8 5.7 3.2 0 5.8-2.6 5.7-5.8 0-3.2-2.6-5.8-5.8-5.7-3.1 0-5.7 2.6-5.7 5.8z"/><path class="est1" d="M382.1 35.3c-4.9 7.8-7.7 17-7.6 26.9.3 27.7 22.9 49.9 50.5 49.6 27.7-.3 49.9-22.9 49.6-50.5-.1-9.5-2.8-18.4-7.5-26h-85zM461.1 27.4c-9.2-9.8-22.4-15.9-37-15.8-14.2.1-27 6.2-36 15.8h73z"/><path class="est2" d="M462.1 35.3c5.2 7.4 8.3 16.3 8.4 26 .2 25.3-20.1 46-45.4 46.3-25.3.2-46-20.1-46.3-45.4-.1-10 3-19.3 8.4-26.9h-10c-4.5 8-7 17.2-6.9 27 .3 29.9 24.9 54.1 54.8 53.8s54.1-24.9 53.8-54.8c-.1-9.4-2.6-18.2-6.9-25.9l-9.9-.1z"/><path class="est3" d="M429.2 35.3h-21.9c-12.8 4.5-21.9 16.8-21.7 31.1.2 18.1 15 32.6 33 32.4 18.1-.2 32.6-15 32.4-33-.2-14.1-9.3-26.1-21.8-30.5z"/><path class="est4" d="M398.2 59.4c.1 8.7 7.2 15.6 15.8 15.5 8.7-.1 15.6-7.2 15.5-15.8-.1-8.7-7.2-15.6-15.8-15.5-8.7.1-15.6 7.2-15.5 15.8z"/><circle class="est4" cx="433" cy="75.5" r="5.8"/><path class="est5" d="M212 34.7h106.7M371.3 34.7H478"/><path class="est6" d="M215.8 34.3v-20M224.8 34.3v-20M233.8 34.3v-20M242.8 34.3v-20M251.8 34.3v-20M260.8 34.3v-20M269.8 34.3v-20M278.8 34.3v-20M287.8 34.3v-20M296.8 34.3v-20M305.8 34.3v-20M314.8 34.3v-20M375.3 34.3v-20M384.3 34.3v-20M393.3 34.3v-20M402.3 34.3v-20M411.3 34.3v-20M420.3 34.3v-20M429.3 34.3v-20M438.3 34.3v-20M447.3 34.3v-20M456.3 34.3v-20M465.3 34.3v-20M474.3 34.3v-20"/><g><circle cx="330.5" cy="221" r="6"/><circle cx="356.5" cy="221" r="6"/></g></g></svg></svg>