<?xml version="1.0" encoding="utf-8"?><svg viewBox="0 0 686 487" xmlns="http://www.w3.org/2000/svg" xmlns:xlink="http://www.w3.org/1999/xlink"><style>:root>svg{display:none}:root>svg:target{display:block}</style><svg id="" viewBox="0 0 686 487" xmlns="http://www.w3.org/2000/svg"><style>.ast0{fill:#07235b}</style><g id="aLivello_10"><path class="ast0" d="M478.4 288.1s57.4 14.9 52.5 36c-5.3 23-25.6 31.9-22.5 35s14.4-.1 23.6.3c9.2.4 24.4 20 6.9 41.2-14.5 17.6-47.6 3.1-53.6-13.1-6.4-17.4 3.2-31.4 12.4-39.5 28.7-25 4.6-26.4-24.8-32.9.2.1-16.7-17 5.5-27zM220.3 319.3s-35.6-9.5-49.5-.3c-13.9 9.3-24.1 33.9-11.4 44 12.7 10.1 21.7 3.4 26.2 9.1 4.3 5.5-7.7 12.8-13.8 10.7-.3-.1-.5-.2-.8-.3-6.1-2.6 24.5 12.4 15.1 26s-38.5 24.2-52.4 3.7c-18.6-27.5-5.7-44.1-.7-46.8 0 0-10.2-81.4 65.2-90.4 0 .2 26 22.9 22.1 44.3z"/></g></svg><svg id="" viewBox="0 0 686 487" xmlns="http://www.w3.org/2000/svg"><style>.bst0{fill:#ececd2}.bst1{fill:#46a73e}</style><g id="bLivello_9"><path class="bst0" d="M311.6 414.8h24.5v67h-60.3s23.3-19.1 35.8-26.4v-40.6z"/><path class="bst1" d="M324.9 414.8h11.2v67h-11.2zM376.4 414.8h-24.5v67h60.3s-23.3-19.1-35.8-26.4v-40.6z"/><path class="bst0" d="M363.1 414.8h-11.2v67h11.2z"/></g></svg><svg id="" viewBox="0 0 686 487" xmlns="http://www.w3.org/2000/svg"><style>.cst0{fill:#31c2f1}.cst1{fill:#1e7794}</style><g id="cLivello_7"><path class="cst0" d="M310.4 74.9c-23.8-3.2-10.8-29.2 5.4-19.5-15.1-22.7 19.5-42.1 27-6.5h3.2c7.6-35.7 42.1-16.2 27 6.5 16.2-9.7 29.2 16.2 5.4 19.5M420.2 67.6s36.8-3.4 39.6-43c2.8-39.6 55.2 67.5 0 92.5"/><path class="cst1" d="M463.1 25.2c8.6 24.6 11.4 62.5-16.5 77.5l15.8 19.8c52.5-23.9 7.6-122 .7-97.3z"/><path class="cst0" d="M266.9 65.6s-36.8-3.4-39.6-43-55.2 67.5 0 92.5"/><path class="cst1" d="M223.9 17.9c-8.6 24.6-11.4 62.5 16.5 77.5l-15.8 19.8c-52.5-23.9-7.5-121.9-.7-97.3z"/><g><path class="cst0" d="M492.2 139.1c-47.9-89-136.9-90.2-136.9-90.2h-28.4s-89 1.2-136.9 90.2c-54.7 118.8 3 214.4 44.8 262.9-5.4 5.2-8.8 12.4-8.8 20.6 0 15.9 12.9 28.8 28.7 28.8 10.8 0 20.2-6.8 25.1-14.7h7.3c4.9 7.9 14.3 14.7 25.1 14.7s20.2-6.8 25.1-14.7h7.3c4.9 7.9 14.3 14.7 25.1 14.7s20.2-6.8 25.1-14.7h7.3c4.9 7.9 14.3 14.6 25.1 14.6 15.9 0 28.7-12.9 28.7-28.8 0-7.4-7.4-19.1-7.4-19.1s106.9-153.3 43.7-264.3z"/><path class="cst1" d="M512.1 211.4C496.9 316.4 407.6 397 299.7 397c-28.8 0-56.4-5.8-81.5-16.3 6.8 9.9 15.8 22.1 15.8 22.1s-8.3 7.4-8.3 21c0 15.9 16.8 33.6 32.4 33.6 10.7 0 19.9-6.1 24.8-14h7.2c4.8 7.9 14.1 14.7 24.8 14.7 10.7 0 19.9-6.8 24.8-14.7h7.2c4.8 7.9 14.1 14.7 24.8 14.7 10.7 0 19.9-6.8 24.8-14.7h7.2c4.8 7.9 14.1 14 24.8 14 15.7 0 28.3-13.3 28.3-29.1.6-11.9-5.3-21.2-5.3-21.2s73.5-106.6 60.6-195.7z"/></g></g></svg><svg id="" viewBox="0 0 686 487" xmlns="http://www.w3.org/2000/svg"><style>.dst0{fill:#fcb712}.dst1{fill:#f8f8e4}</style><g id="dLivello_1_1_"><path class="dst0" d="M256.4 305h176.1c1.9 0 1.9-3 0-3H256.4c-1.9 0-1.9 3 0 3z"/><path class="dst1" d="M290.1 301.4c-.2-9.1-4.7-20.1-10.1-20s-9.5 11.3-9.4 20.4l19.5-.4zM417 301.4c-.2-9.1-4.7-20.1-10.1-20s-9.5 11.3-9.4 20.4l19.5-.4z"/></g></svg><svg id="" viewBox="0 0 686 487" xmlns="http://www.w3.org/2000/svg"><style>.est0{fill:#fff}.est1{fill:#f8f8e4}.est2{fill:#fcb712}</style><g id="eLivello_9"><path class="est0" d="M413.3 146.2c.3 1.9.4 3.9.4 5.9 0 28.2-29.7 51.2-66.4 51.2s-66.4-22.9-66.4-51.2c0-2 .2-4 .4-5.9h132z"/><path class="est1" d="M397.7 146.2c.2 1.5.4 3 .4 4.5 0 21.6-22.7 39.1-50.7 39.1s-50.7-17.5-50.7-39.1c0-1.5.1-3 .3-4.5h100.7z"/><path class="est2" d="M383.6 146.2c.2 1 .3 2.1.3 3.2 0 15.6-16.4 28.1-36.5 28.1-20.2 0-36.6-12.6-36.6-28.1 0-1.1.1-2.2.3-3.2h72.5z"/><path class="est0" d="M334.4 146.2c5.3 0 9.6 4.3 9.6 9.6s-4.3 9.6-9.6 9.6-9.6-4.3-9.6-9.6 4.3-9.6 9.6-9.6z"/></g></svg></svg>