<?xml version="1.0" encoding="utf-8"?><svg viewBox="0 0 686 487" xmlns="http://www.w3.org/2000/svg" xmlns:xlink="http://www.w3.org/1999/xlink"><style>:root>svg{display:none}:root>svg:target{display:block}</style><svg id="" viewBox="0 0 686 487" xmlns="http://www.w3.org/2000/svg"><style>.ast0{fill:#46a73e}</style><g id="aLivello_10"><path class="ast0" d="M478.4 288.1s57.4 14.9 52.5 36c-5.3 23-25.6 31.9-22.5 35s14.4-.1 23.6.3c9.2.4 24.4 20 6.9 41.2-14.5 17.6-47.6 3.1-53.6-13.1-6.4-17.4 3.2-31.4 12.4-39.5 28.7-25 4.6-26.4-24.8-32.9.2.1-16.7-17 5.5-27zM220.3 319.3s-35.6-9.5-49.5-.3c-13.9 9.3-24.1 33.9-11.4 44 12.7 10.1 21.7 3.4 26.2 9.1 4.3 5.5-7.7 12.8-13.8 10.7-.3-.1-.5-.2-.8-.3-6.1-2.6 24.5 12.4 15.1 26s-38.5 24.2-52.4 3.7c-18.6-27.5-5.7-44.1-.7-46.8 0 0-10.2-81.4 65.2-90.4 0 .2 26 22.9 22.1 44.3z"/></g></svg><svg id="" viewBox="0 0 686 487" xmlns="http://www.w3.org/2000/svg"><style>.bst0{fill:#07235b}</style><path class="bst0" d="M258.2 393.2c0 17.5 6.4 31.2 16.9 41l-8.8 31.2c-3.2.8-5 8.7-5 9.8 0 3 15 5.5 33.5 5.5s33.5-2.5 33.5-5.5c0-.9-1.2-8.6-3.4-9.3l-3.7-13.8c2.4.2 4.9.3 7.4.3h31.9c2.3 0 4.5-.1 6.8-.2l-3.9 15.3c-2.2.7-3.4 7.4-3.4 8.3 0 3 15 5.5 33.5 5.5s33.5-2.5 33.5-5.5c0-1.1-1.8-8-5-8.8l-8.8-32c11-9.8 17.7-23.8 17.7-41.7" id="bLivello_1_1_"/></svg><svg id="" viewBox="0 0 686 487" xmlns="http://www.w3.org/2000/svg"><style>.cst0{fill:#d7e9f3}.cst1{fill:#07235b}.cst2{fill:#145cee}</style><g id="cLivello_9"><path class="cst0" d="M261.5 138l25.5-16.9-90.3-83.2 31.5 120.6z"/><path class="cst1" d="M261.5 138l25.5-16.9-28.7-26.4c-9.7 6.5-18.7 14.6-26.5 24.2-3.8 4.6-7.2 9.5-10.2 14.4l6.6 25.2 33.3-20.5zM254.5 91.1l-4.7-4.3-32.8 29 1.8 6.9 35.7-31.6zm-11.2-10.3l-3.7-3.4-27.6 19 1.4 5.1 29.9-20.7zm-11.4-10.4l-3.8-3.5-20.6 12.7 1.3 5 23.1-14.2zM219 58.5l-3.7-3.4-11.4 10.5 1.4 5.5L219 58.5zm-8.5-7.9l-3.8-3.4-6.5 4.5 1.4 5.1 8.9-6.2z"/><g><path class="cst0" d="M432.5 138L407 121.1l90.3-83.2-31.5 120.6z"/><path class="cst1" d="M432.5 138L407 121.1l28.7-26.4c9.7 6.5 18.7 14.6 26.5 24.2 3.8 4.6 7.2 9.5 10.2 14.4l-6.6 25.2-33.3-20.5zM439.5 91.1l4.6-4.3 32.8 29-1.8 6.9-35.6-31.6zm11.3-10.3l3.7-3.4 27.6 19-1.4 5.1-29.9-20.7zm11.3-10.4l3.8-3.5 20.5 12.7-1.3 5-23-14.2zM475 58.5l3.6-3.4L490 65.6l-1.4 5.5L475 58.5zm8.5-7.9l3.8-3.4 6.5 4.5-1.3 5.1-9-6.2z"/></g><g><path class="cst1" d="M187 275c-40.9 231.5 362.9 231.5 321.9 0C461.2 5 234.8 5 187 275z"/><path class="cst2" d="M187 275c-7.1 40.5-.7 73.9 14.6 100.2 29.7 25.6 67.3 40.8 108.1 40.8C406 416 484 331.3 484 226.9c0-19.4-2.7-38-7.6-55.6C396.9 11.2 227.6 45.8 187 275z"/><path class="cst1" d="M348 117.3c35 0 63.3 1.2 63.3 2.7 0 1.4-28.3 2.6-63.3 2.6s-63.4-1.2-63.4-2.6c.1-1.5 28.4-2.7 63.4-2.7zM348 130.6c35 0 63.3 1.1 63.3 2.6s-28.3 2.6-63.3 2.6-63.4-1.1-63.4-2.6c.1-1.5 28.4-2.6 63.4-2.6zM227.7 324.5c-2-6.4-8.9-10-15.3-8-6.5 2.1-10 8.9-8 15.4s8.9 10 15.3 8c6.5-2 10.1-8.9 8-15.4zM248.4 329c-1.2-3.9-5.3-6-9.2-4.8s-6 5.3-4.7 9.2c1.2 3.9 5.3 6 9.2 4.8 3.7-1.3 5.9-5.4 4.7-9.2zM228.5 304.7c-.8-2.7-3.8-4.2-6.5-3.4-2.7.9-4.2 3.8-3.4 6.5.9 2.8 3.8 4.3 6.5 3.4 2.8-.8 4.3-3.7 3.4-6.5z"/><g><path class="cst1" d="M372.6 363.3c-6.5 1.9-10.2 8.8-8.2 15.2 1.9 6.5 8.7 10.2 15.2 8.2 6.5-1.9 10.2-8.8 8.2-15.2-1.9-6.5-8.8-10.2-15.2-8.2zM377.3 342.7c-3.9 1.1-6.1 5.3-4.9 9.1 1.1 3.9 5.3 6.1 9.1 5 3.9-1.1 6.1-5.3 5-9.1-1.3-4-5.4-6.2-9.2-5zM352.8 362.2c-2.8.8-4.3 3.7-3.5 6.5s3.7 4.3 6.5 3.5 4.3-3.8 3.5-6.5c-.9-2.8-3.8-4.4-6.5-3.5z"/></g><g><path class="cst1" d="M250.4 217.1c1-6.7-3.6-12.9-10.3-13.9s-12.9 3.6-13.9 10.3 3.6 12.9 10.3 13.9c6.6 1 12.8-3.6 13.9-10.3zM267 230.1c.6-4-2.1-7.8-6.1-8.3-4-.6-7.8 2.1-8.3 6.1-.6 4 2.1 7.8 6.1 8.3 3.9.7 7.7-2.1 8.3-6.1zM259.8 199.6c.5-2.8-1.5-5.5-4.3-5.9-2.9-.4-5.5 1.5-5.9 4.4-.4 2.8 1.5 5.5 4.4 5.9 2.7.5 5.4-1.5 5.8-4.4z"/></g><g><path class="cst1" d="M446.8 200.2c-3.4-5.8-1.5-13.3 4.4-16.7 5.8-3.4 13.3-1.4 16.7 4.4 3.4 5.8 1.5 13.3-4.4 16.7-5.8 3.4-13.3 1.5-16.7-4.4zM436.2 218.5c-2-3.5-.9-8 2.7-10.1 3.5-2 8-.8 10 2.7s.9 8-2.7 10.1c-3.5 1.9-8 .7-10-2.7zM431.6 187.5c-1.5-2.5-.6-5.7 1.9-7.1 2.5-1.4 5.7-.6 7.1 1.9 1.5 2.5.6 5.7-1.9 7.1s-5.6.6-7.1-1.9z"/></g></g></g></svg><svg id="" viewBox="0 0 686 487" xmlns="http://www.w3.org/2000/svg"><style>.dst0{fill:#ede2ce}.dst1{fill:#edeced}.dst2{fill:#d03c0f}</style><g id="dLivello_10"><path class="dst0" d="M294.8 289.2c0-2.6-10.9-30.9-10.9-30.9l-11.1 30.9h22z"/><path class="dst1" d="M294.8 289.2c0-2.6-10.9-30.9-10.9-30.9l-.6 30.9h11.5z"/><path class="dst0" d="M412.2 289.2c0-2.6-10.9-30.9-10.9-30.9l-11 30.9h21.9z"/><path class="dst1" d="M412.2 289.2c0-2.6-10.9-30.9-10.9-30.9l-.6 30.9h11.5z"/><path class="dst2" d="M341.4 287c43.2 0 78.2 1 78.2 2.2s-35 2.2-78.2 2.2-78.1-1-78.1-2.2c-.1-1.2 34.9-2.2 78.1-2.2z"/></g></svg><svg id="" viewBox="0 0 686 487" xmlns="http://www.w3.org/2000/svg"><style>.est0{fill:#fff}.est1{fill:#f8f8e4}.est2{fill:#fcb712}</style><g id="eLivello_9"><path class="est0" d="M413.3 146.2c.3 1.9.4 3.9.4 5.9 0 28.2-29.7 51.2-66.4 51.2s-66.4-22.9-66.4-51.2c0-2 .2-4 .4-5.9h132z"/><path class="est1" d="M397.7 146.2c.2 1.5.4 3 .4 4.5 0 21.6-22.7 39.1-50.7 39.1s-50.7-17.5-50.7-39.1c0-1.5.1-3 .3-4.5h100.7z"/><path class="est2" d="M383.6 146.2c.2 1 .3 2.1.3 3.2 0 15.6-16.4 28.1-36.5 28.1-20.2 0-36.6-12.6-36.6-28.1 0-1.1.1-2.2.3-3.2h72.5z"/><path class="est0" d="M334.4 146.2c5.3 0 9.6 4.3 9.6 9.6s-4.3 9.6-9.6 9.6-9.6-4.3-9.6-9.6 4.3-9.6 9.6-9.6z"/></g></svg></svg>