<?xml version="1.0" encoding="utf-8"?><svg viewBox="0 0 686 487" xmlns="http://www.w3.org/2000/svg" xmlns:xlink="http://www.w3.org/1999/xlink"><style>:root>svg{display:none}:root>svg:target{display:block}</style><svg id="" viewBox="0 0 686 487" xmlns="http://www.w3.org/2000/svg"><style>.ast0{fill:#82387f}</style><g id="aLivello_10"><path class="ast0" d="M478.4 288.1s57.4 14.9 52.5 36c-5.3 23-25.6 31.9-22.5 35s14.4-.1 23.6.3c9.2.4 24.4 20 6.9 41.2-14.5 17.6-47.6 3.1-53.6-13.1-6.4-17.4 3.2-31.4 12.4-39.5 28.7-25 4.6-26.4-24.8-32.9.2.1-16.7-17 5.5-27zM220.3 319.3s-35.6-9.5-49.5-.3c-13.9 9.3-24.1 33.9-11.4 44 12.7 10.1 21.7 3.4 26.2 9.1 4.3 5.5-7.7 12.8-13.8 10.7-.3-.1-.5-.2-.8-.3-6.1-2.6 24.5 12.4 15.1 26s-38.5 24.2-52.4 3.7c-18.6-27.5-5.7-44.1-.7-46.8 0 0-10.2-81.4 65.2-90.4 0 .2 26 22.9 22.1 44.3z"/></g></svg><svg id="" viewBox="0 0 686 487" xmlns="http://www.w3.org/2000/svg"><style>.bst0{fill:#07235b}.bst1{fill:#d7e9f3}</style><g id="bLivello_11"><path class="bst0" d="M313.3 392.2s26.2 1.7 29.6 5-3.6 45.1-4.1 54.7.9 27.7-7.6 29.5-61 .5-76.5-1.2-13.3-20.8 25.9-15.4c39.2 5.5 41.8.8 41.8.8s-19.2-64.3-9.1-73.4z"/><path class="bst0" d="M370.6 390.2s-24.7 7-27.1 11 14.9 43.2 17.8 52.4c2.9 9.2 6.2 27.2 14.7 27.1 8.6 0 58.6-12.1 73-17s7.4-23-28.8-9.6-39.9 9.4-39.9 9.4 2.2-66.5-9.7-73.3z"/><path class="bst1" d="M258.5 467.6c-3.6-4.9-10.3-9.1-13.2-7s-.8 9.8 2.7 14.7l10.5-7.7zM453.3 457.1c2.5-5.5 3-13.4-.2-14.9-3.3-1.5-9 4-11.6 9.4l11.8 5.5z"/></g></svg><svg id="" viewBox="0 0 686 487" xmlns="http://www.w3.org/2000/svg"><style>.cst0{fill:#f27825}.cst1{fill:#d03c0f}</style><g id="cLivello_10"><path class="cst0" d="M224.6 106s-2.8-51.2-43.5-58.9c0 0-11.2 25.1-30.2 12.5-18.9-12.5 7.7-42 21.7-38.5s11.8 16.8 11.8 16.8 41.5 7 46.4 63.8l-6.2 4.3zM461.8 108.2s2.8-51.2 43.5-58.9c0 0 11.2 25.1 30.2 12.5 18.9-12.5-7.7-42-21.7-38.5S502 40.1 502 40.1s-41.5 7-46.4 63.8l6.2 4.3z"/><g><path class="cst1" d="M181.7 118.7C145.4 168.3 144 227.1 144 227.1c9.9-7.8 19.8-15.5 29.6-23.2-10.5 38.3-20.3 108.3 12.1 136.3l8.1-49.5c-4.3 77.9 82.6 201.6 121.2 144 13.2-19.7 43.4-19.7 56.5 0 38.6 57.6 125.5-66.1 121.2-144l8.1 49.5c32.4-28 22.6-98 12.1-136.3 9.9 7.8 19.8 15.5 29.6 23.2 0 0-1.4-58.8-37.7-108.4C418.5 1.1 268 1.1 181.7 118.7z"/><path class="cst0" d="M181.7 118.7C145.4 168.3 144 227.1 144 227.1c9.9-7.8 19.8-15.5 29.6-23.2-10.5 38.3-20.3 108.3 12.1 136.3l8.1-49.5c-1.9 34.7 14.3 78.5 36.2 111.2 6.4.6 13 .9 19.5.9 31.2 0 61.1-6 88.3-17.7 5.5-2.4 9.6-4.3 9.6-4.3 80.3-38 136-121.3 136-218 0-29.3-5.1-57.3-14.5-83.2C381.2 3 257 16 181.7 118.7z"/></g></g></svg><svg id="" viewBox="0 0 686 487" xmlns="http://www.w3.org/2000/svg"><style>.dst0{fill:#46a73e}.dst1{fill:#ececd2}</style><g id="dLivello_7"><path class="dst0" d="M314 255.8h67.7c5.1 0 5.1-7.9 0-7.9H314c-5.1 0-5.1 7.9 0 7.9z"/><path class="dst1" d="M322.3 252.5c0 10.6 5.1 23.5 11.4 23.5s11.4-12.9 11.4-23.5h-22.8z"/></g></svg><svg id="" viewBox="0 0 686 487" xmlns="http://www.w3.org/2000/svg"><style>.est0{fill:#fff}.est1{fill:#e8cbd9}.est2{fill:#9f446d}</style><g id="eLivello_9"><path class="est0" d="M413.3 146.2c.3 1.9.4 3.9.4 5.9 0 28.2-29.7 51.2-66.4 51.2s-66.4-22.9-66.4-51.2c0-2 .2-4 .4-5.9h132z"/><path class="est1" d="M397.7 146.2c.2 1.5.4 3 .4 4.5 0 21.6-22.7 39.1-50.7 39.1s-50.7-17.5-50.7-39.1c0-1.5.1-3 .3-4.5h100.7z"/><path class="est2" d="M383.6 146.2c.2 1 .3 2.1.3 3.2 0 15.6-16.4 28.1-36.5 28.1-20.2 0-36.6-12.6-36.6-28.1 0-1.1.1-2.2.3-3.2h72.5z"/><path class="est0" d="M334.4 146.2c5.3 0 9.6 4.3 9.6 9.6s-4.3 9.6-9.6 9.6-9.6-4.3-9.6-9.6 4.3-9.6 9.6-9.6z"/></g></svg></svg>