<?xml version="1.0" encoding="utf-8"?><svg viewBox="0 0 686 487" xmlns="http://www.w3.org/2000/svg" xmlns:xlink="http://www.w3.org/1999/xlink"><style>:root>svg{display:none}:root>svg:target{display:block}</style><svg id="" viewBox="0 0 686 487" xmlns="http://www.w3.org/2000/svg"><style>.ast0{fill:#82387f}</style><g id="aLivello_8"><path class="ast0" d="M592.5 289.5v-4h14.1c0-1.6.1-3.3.1-5h-14.1v-4h14.2c0-1.7 0-3.4-.1-5h-14.1v-4h14c-.1-1.7-.1-3.4-.2-5h-13.8v-4H606c-.2-2.5-.5-4.6-.8-6.2-2.2-10.9-52.5-7.3-45.4 20.3 6.5 25.3 17.3 27.9 19.1 28.1-5.6-.6-102.1-11.6-116.6-4.4 0 0 1.6 18.5 6.9 20.8 5.2 2.3 72.2-3.8 87.5-4.5 15.3-.6 44.3-.2 47.4-6.2 1.2-2.3 1.9-8.9 2.3-17h-13.9v.1zM95.1 289.5v-4H81c0-1.6-.1-3.3-.1-5H95v-4H80.9c0-1.7 0-3.4.1-5h14.1v-4h-14c.1-1.7.1-3.4.2-5h13.8v-4H81.6c.2-2.5.5-4.6.8-6.2 2.2-10.9 52.5-7.3 45.4 20.3-6.5 25.3-17.3 27.9-19.1 28.1 5.6-.6 102.1-11.6 116.6-4.4 0 0-1.6 18.5-6.9 20.8-5.2 2.3-72.2-3.8-87.5-4.5-15.3-.6-44.3-.2-47.4-6.2-1.2-2.3-1.9-8.9-2.3-17h13.9v.1z"/></g></svg><svg id="" viewBox="0 0 686 487" xmlns="http://www.w3.org/2000/svg"><style>.bst0{fill:#9f446d}</style><path class="bst0" d="M258.2 393.2c0 17.5 6.4 31.2 16.9 41 0 0-1.2 4.4-2.8 9.9-.5 1.8-1.1 3.8-1.6 5.7C261 468 237 464 222 474c33 15 72 10 105-1 1.5-.5.5-2.5-.9-5.2C323 462 320 453 323 450c12-11 32-7 45 3 3 2-3 10-5.6 16.3-1.2 2.9-1.9 5.2-.4 5.7 29 11 70 14 97-2-11.4-2.6-26.6-1.4-35.7-10-1.3-1.2-2.5-2.7-3.5-4.3-5.8-13.6-8.8-25.6 4-36.5.9-1.6 1.8-3.3 2.5-5 3.1-7 4.7-14.9 4.7-23.9" id="bLivello_4"/></svg><svg id="" viewBox="0 0 686 487" xmlns="http://www.w3.org/2000/svg"><style>.cst0{fill:#f27825}.cst1{fill:#d03c0f}</style><g id="cLivello_10"><path class="cst0" d="M224.6 106s-2.8-51.2-43.5-58.9c0 0-11.2 25.1-30.2 12.5-18.9-12.5 7.7-42 21.7-38.5s11.8 16.8 11.8 16.8 41.5 7 46.4 63.8l-6.2 4.3zM461.8 108.2s2.8-51.2 43.5-58.9c0 0 11.2 25.1 30.2 12.5 18.9-12.5-7.7-42-21.7-38.5S502 40.1 502 40.1s-41.5 7-46.4 63.8l6.2 4.3z"/><g><path class="cst1" d="M181.7 118.7C145.4 168.3 144 227.1 144 227.1c9.9-7.8 19.8-15.5 29.6-23.2-10.5 38.3-20.3 108.3 12.1 136.3l8.1-49.5c-4.3 77.9 82.6 201.6 121.2 144 13.2-19.7 43.4-19.7 56.5 0 38.6 57.6 125.5-66.1 121.2-144l8.1 49.5c32.4-28 22.6-98 12.1-136.3 9.9 7.8 19.8 15.5 29.6 23.2 0 0-1.4-58.8-37.7-108.4C418.5 1.1 268 1.1 181.7 118.7z"/><path class="cst0" d="M181.7 118.7C145.4 168.3 144 227.1 144 227.1c9.9-7.8 19.8-15.5 29.6-23.2-10.5 38.3-20.3 108.3 12.1 136.3l8.1-49.5c-1.9 34.7 14.3 78.5 36.2 111.2 6.4.6 13 .9 19.5.9 31.2 0 61.1-6 88.3-17.7 5.5-2.4 9.6-4.3 9.6-4.3 80.3-38 136-121.3 136-218 0-29.3-5.1-57.3-14.5-83.2C381.2 3 257 16 181.7 118.7z"/></g></g></svg><svg id="" viewBox="0 0 686 487" xmlns="http://www.w3.org/2000/svg"><style>.dst0{fill:#d7e6ed}.dst1{fill:#70bbb1;stroke:#1e7794;stroke-width:5.3235;stroke-linecap:round;stroke-linejoin:round;stroke-miterlimit:10}</style><g id="dLivello_8"><path class="dst0" d="M313 303.6c0 10.6 5.1 23.7 11.5 23.7 6.3 0 11.5-13.1 11.5-23.7l-11.5-5-11.5 5zM350.3 303.6c0 10.6 5.1 23.7 11.5 23.7 6.3 0 11.5-13.1 11.5-23.7l-10-6.3-13 6.3z"/><path class="dst1" d="M360.4 295.6c-.6 1.6-3.3 6.3-7.5 8.7-4.1 2.5-8.7 2.8-8.6 2.7 0-.1-4.5.4-8.8-1.8-4.5-1.9-7.6-6.4-8.4-7.9-1-2-1.7-3.4-2.3-5 0-1-.1-1.9-.3-3-.1.5-.3.9-.4 1.3-.1-.2-.1-.3-.2-.5 0 .4-.1.8-.1 1.2-.6 1.8-1.2 3.2-2.2 5.4-.7 1.6-3.7 6.1-8 8.3-4.3 2.3-8.8 2.3-8.7 2.2 0-.1-4.5.2-8.7-2.3-4.4-2.2-7.2-6.8-7.9-8.4-1.3-3-1.9-4.6-2.8-7.4-.4 2.8-.5 5 .9 8.3.8 1.7 3.9 6.9 8.8 9.3 4.7 2.7 9.8 2.5 9.7 2.5-.1.1 5 .1 9.7-2.4 4.9-2.4 8.2-7.4 8.9-9.2.3-.7.6-1.3.8-2 .2.8.6 1.7 1 2.7.9 1.7 4.3 6.6 9.3 8.8 4.8 2.4 9.9 1.9 9.8 2-.1.1 5-.2 9.6-3 4.7-2.7 7.7-7.9 8.4-9.7 1.2-3.3 1.1-5.5.5-8.3-.8 2.8-1.3 4.5-2.5 7.5z"/><path class="dst1" d="M402.8 289.3c-.9 2.8-1.5 4.5-2.9 7.4-.7 1.6-3.7 6.1-8 8.3-4.3 2.3-8.8 2.3-8.8 2.2s-4.5.2-8.7-2.3c-4.4-2.2-7.2-6.8-7.9-8.4-1.3-3-1.9-4.6-2.8-7.4-.4 2.8-.5 5 .9 8.3.8 1.7 4 6.9 8.8 9.3 4.7 2.7 9.8 2.5 9.7 2.5-.1.1 5 .1 9.7-2.4 4.9-2.4 8.2-7.4 8.9-9.2 1.5-3.2 1.4-5.4 1.1-8.3z"/></g></svg><svg id="" viewBox="0 0 686 487" xmlns="http://www.w3.org/2000/svg"><style>.est0{fill:#fff}.est1{fill:#fcb712}</style><g id="eLivello_11"><path class="est0" d="M450.9 157.9c-.2 27.8-22.8 50.2-50.6 50-27.8-.2-50.2-22.9-50-50.7s22.9-50.2 50.7-50c27.8.2 50.1 22.9 49.9 50.7z"/><path class="est1" d="M420.4 166.8c-.1 16.8-13.8 30.3-30.7 30.2-16.8-.1-30.3-13.8-30.2-30.7.1-16.8 13.8-30.3 30.6-30.2 16.9.1 30.4 13.8 30.3 30.7z"/><path class="est0" d="M395.7 157.4c-.1 6.8-5.6 12.2-12.4 12.2s-12.2-5.6-12.2-12.3c0-6.8 5.6-12.2 12.3-12.2 6.9-.1 12.4 5.5 12.3 12.3zM406.4 178.1c0 3.4-2.8 6.1-6.1 6-3.4 0-6.1-2.8-6.1-6.1 0-3.4 2.8-6.1 6.1-6 3.4 0 6.1 2.7 6.1 6.1z"/><g><path class="est0" d="M235 166.4c-.1 22.4 17.9 40.6 40.2 40.8 22.4.1 40.6-17.9 40.8-40.2.2-22.4-17.9-40.6-40.2-40.8-22.4-.2-40.7 17.8-40.8 40.2z"/><path class="est1" d="M259.5 173.9c-.1 13.5 10.8 24.6 24.3 24.7 13.5.1 24.6-10.8 24.7-24.3s-10.8-24.6-24.3-24.7c-13.6-.2-24.7 10.7-24.7 24.3z"/><path class="est0" d="M279.4 166.6c0 5.5 4.4 9.9 9.8 9.9 5.5 0 9.9-4.4 9.9-9.8s-4.3-9.9-9.8-9.9c-5.4-.1-9.8 4.3-9.9 9.8zM270.6 183.2c0 2.7 2.2 4.9 4.9 4.9s4.9-2.2 4.9-4.9-2.2-4.9-4.9-4.9-4.9 2.1-4.9 4.9z"/></g></g></svg></svg>