<?xml version="1.0" encoding="utf-8"?><svg viewBox="0 0 686 487" xmlns="http://www.w3.org/2000/svg" xmlns:xlink="http://www.w3.org/1999/xlink"><style>:root>svg{display:none}:root>svg:target{display:block}</style><svg id="" viewBox="0 0 686 487" xmlns="http://www.w3.org/2000/svg"><style>.ast0{fill:#1e7794}</style><g id="aLivello_7"><path class="ast0" d="M479.1 320.7l97.3-85.3 40.1 13.7 39.3-44.5-42.2 26.9 34.2-48.4-49.2 31.7 19.7-30-35.5 19.3-15.5 21.5L466 304.8zM210.2 320.7l-87.8-94.9-41.3 9.4-34.4-48.4L85.9 218 57 166.3l45.5 36.6L86.1 171l33.3 22.9 13.2 23.1 92.4 89.3z"/></g></svg><svg id="" viewBox="0 0 686 487" xmlns="http://www.w3.org/2000/svg"><style>.bst0{fill:#a11b10}</style><g id="bLivello_8"><path class="bst0" d="M301.8 390.3s18 1.4 20.3 4.6-2.9 43.5-3.4 52.7c-.4 9.2.3 26.7-5.5 28.5s-41.9 1-52.5-.5-7.7-31.8 19.1-26.9c26.9 4.9 27.6 12.3 27.6 12.3s-12.6-61.8-5.6-70.7zM380.6 391.7s-17.9.7-20.1 3.8c-2.1 3.1 5.5 43.6 6.4 52.9 1 9.2 1.2 26.7 7.2 28.7 5.9 2 42 2.6 52.6 1.4 10.5-1.2 5.9-31.6-20.7-27.7s-26.9 11.3-26.9 11.3 9-61.2 1.5-70.4z"/></g></svg><svg id="" viewBox="0 0 686 487" xmlns="http://www.w3.org/2000/svg"><style>.cst0{fill:#f8f8e4}.cst1{fill:#fddc15}.cst2{fill:#fcb712}</style><g id="cLivello_1_1_"><path class="cst0" d="M254.5 83.3s-22.9-2.1-24.6-26.8c-1.7-24.6-34.4 42 0 57.6M434.9 90s22.9-2.1 24.6-26.8c1.7-24.6 34.4 42 0 57.6"/><path class="cst1" d="M549.4 256.1C549.4 361.5 457 447 343 447s-206.4-85.5-206.4-190.9S229 65.2 343 65.2s206.4 85.5 206.4 190.9z"/><path class="cst2" d="M310.4 73.9c-23.8-3.2-10.8-29.2 5.4-19.5-15.1-22.7 19.5-42.1 27-6.5h3.2c7.6-35.7 42.1-16.2 27 6.5 16.2-9.7 29.2 16.2 5.4 19.5M479.1 114.1c15.2 26.3 23.8 56.2 23.8 87.9 0 104-92.2 188.3-205.9 188.3-50.2 0-96.3-16.5-132-43.8C199.5 406.3 268.1 447 347.1 447 460.8 447 553 362.7 553 258.7c0-58.1-28.8-110-73.9-144.6z"/></g></svg><svg id="" viewBox="0 0 686 487" xmlns="http://www.w3.org/2000/svg"><style>.dst0{fill:#d7e9f3}.dst1{fill:#edeced}.dst2{fill:#07235b}</style><g id="dLivello_10"><path class="dst0" d="M294.8 289.2c0-2.6-10.9-30.9-10.9-30.9l-11.1 30.9h22z"/><path class="dst1" d="M294.8 289.2c0-2.6-10.9-30.9-10.9-30.9l-.6 30.9h11.5z"/><path class="dst0" d="M412.2 289.2c0-2.6-10.9-30.9-10.9-30.9l-11 30.9h21.9z"/><path class="dst1" d="M412.2 289.2c0-2.6-10.9-30.9-10.9-30.9l-.6 30.9h11.5z"/><path class="dst2" d="M341.4 287c43.2 0 78.2 1 78.2 2.2s-35 2.2-78.2 2.2-78.1-1-78.1-2.2c-.1-1.2 34.9-2.2 78.1-2.2z"/></g></svg><svg id="" viewBox="0 0 686 487" xmlns="http://www.w3.org/2000/svg"><style>.est0{fill:#fff}.est1{fill:#e8cbd9}.est2{fill:#9f446d}</style><g id="eLivello_9"><path class="est0" d="M413.3 146.2c.3 1.9.4 3.9.4 5.9 0 28.2-29.7 51.2-66.4 51.2s-66.4-22.9-66.4-51.2c0-2 .2-4 .4-5.9h132z"/><path class="est1" d="M397.7 146.2c.2 1.5.4 3 .4 4.5 0 21.6-22.7 39.1-50.7 39.1s-50.7-17.5-50.7-39.1c0-1.5.1-3 .3-4.5h100.7z"/><path class="est2" d="M383.6 146.2c.2 1 .3 2.1.3 3.2 0 15.6-16.4 28.1-36.5 28.1-20.2 0-36.6-12.6-36.6-28.1 0-1.1.1-2.2.3-3.2h72.5z"/><path class="est0" d="M334.4 146.2c5.3 0 9.6 4.3 9.6 9.6s-4.3 9.6-9.6 9.6-9.6-4.3-9.6-9.6 4.3-9.6 9.6-9.6z"/></g></svg></svg>