<?xml version="1.0" encoding="utf-8"?><svg viewBox="0 0 686 487" xmlns="http://www.w3.org/2000/svg" xmlns:xlink="http://www.w3.org/1999/xlink"><style>:root>svg{display:none}:root>svg:target{display:block}</style><svg id="" viewBox="0 0 686 487" xmlns="http://www.w3.org/2000/svg"><style>.ast0{fill:#fcb712}</style><g id="aLivello_8"><path class="ast0" d="M592.5 289.5v-4h14.1c0-1.6.1-3.3.1-5h-14.1v-4h14.2c0-1.7 0-3.4-.1-5h-14.1v-4h14c-.1-1.7-.1-3.4-.2-5h-13.8v-4H606c-.2-2.5-.5-4.6-.8-6.2-2.2-10.9-52.5-7.3-45.4 20.3 6.5 25.3 17.3 27.9 19.1 28.1-5.6-.6-102.1-11.6-116.6-4.4 0 0 1.6 18.5 6.9 20.8 5.2 2.3 72.2-3.8 87.5-4.5 15.3-.6 44.3-.2 47.4-6.2 1.2-2.3 1.9-8.9 2.3-17h-13.9v.1zM95.1 289.5v-4H81c0-1.6-.1-3.3-.1-5H95v-4H80.9c0-1.7 0-3.4.1-5h14.1v-4h-14c.1-1.7.1-3.4.2-5h13.8v-4H81.6c.2-2.5.5-4.6.8-6.2 2.2-10.9 52.5-7.3 45.4 20.3-6.5 25.3-17.3 27.9-19.1 28.1 5.6-.6 102.1-11.6 116.6-4.4 0 0-1.6 18.5-6.9 20.8-5.2 2.3-72.2-3.8-87.5-4.5-15.3-.6-44.3-.2-47.4-6.2-1.2-2.3-1.9-8.9-2.3-17h13.9v.1z"/></g></svg><svg id="" viewBox="0 0 686 487" xmlns="http://www.w3.org/2000/svg"><style>.bst0{fill:#eecec7}.bst1{fill:#a11b10}</style><g id="bLivello_9"><path class="bst0" d="M311.6 414.8h24.5v67h-60.3s23.3-19.1 35.8-26.4v-40.6z"/><path class="bst1" d="M324.9 414.8h11.2v67h-11.2zM376.4 414.8h-24.5v67h60.3s-23.3-19.1-35.8-26.4v-40.6z"/><path class="bst0" d="M363.1 414.8h-11.2v67h11.2z"/></g></svg><svg id="" viewBox="0 0 686 487" xmlns="http://www.w3.org/2000/svg"><style>.cst0{fill:#f8f8e4}.cst1{fill:#fddc15}.cst2{fill:#fcb712}</style><g id="cLivello_1_1_"><path class="cst0" d="M254.5 83.3s-22.9-2.1-24.6-26.8c-1.7-24.6-34.4 42 0 57.6M434.9 90s22.9-2.1 24.6-26.8c1.7-24.6 34.4 42 0 57.6"/><path class="cst1" d="M549.4 256.1C549.4 361.5 457 447 343 447s-206.4-85.5-206.4-190.9S229 65.2 343 65.2s206.4 85.5 206.4 190.9z"/><path class="cst2" d="M310.4 73.9c-23.8-3.2-10.8-29.2 5.4-19.5-15.1-22.7 19.5-42.1 27-6.5h3.2c7.6-35.7 42.1-16.2 27 6.5 16.2-9.7 29.2 16.2 5.4 19.5M479.1 114.1c15.2 26.3 23.8 56.2 23.8 87.9 0 104-92.2 188.3-205.9 188.3-50.2 0-96.3-16.5-132-43.8C199.5 406.3 268.1 447 347.1 447 460.8 447 553 362.7 553 258.7c0-58.1-28.8-110-73.9-144.6z"/></g></svg><svg id="" viewBox="0 0 686 487" xmlns="http://www.w3.org/2000/svg"><style>.dst0{fill:#d7e9f3}.dst1{fill:#edeced}.dst2{fill:#07235b}</style><g id="dLivello_10"><path class="dst0" d="M294.8 289.2c0-2.6-10.9-30.9-10.9-30.9l-11.1 30.9h22z"/><path class="dst1" d="M294.8 289.2c0-2.6-10.9-30.9-10.9-30.9l-.6 30.9h11.5z"/><path class="dst0" d="M412.2 289.2c0-2.6-10.9-30.9-10.9-30.9l-11 30.9h21.9z"/><path class="dst1" d="M412.2 289.2c0-2.6-10.9-30.9-10.9-30.9l-.6 30.9h11.5z"/><path class="dst2" d="M341.4 287c43.2 0 78.2 1 78.2 2.2s-35 2.2-78.2 2.2-78.1-1-78.1-2.2c-.1-1.2 34.9-2.2 78.1-2.2z"/></g></svg><svg id="" viewBox="0 0 686 487" xmlns="http://www.w3.org/2000/svg"><style>.est0{fill:#fff}.est1{fill:#f8f8e4}.est2{fill:#fcb712}</style><g id="eLivello_9"><path class="est0" d="M413.3 146.2c.3 1.9.4 3.9.4 5.9 0 28.2-29.7 51.2-66.4 51.2s-66.4-22.9-66.4-51.2c0-2 .2-4 .4-5.9h132z"/><path class="est1" d="M397.7 146.2c.2 1.5.4 3 .4 4.5 0 21.6-22.7 39.1-50.7 39.1s-50.7-17.5-50.7-39.1c0-1.5.1-3 .3-4.5h100.7z"/><path class="est2" d="M383.6 146.2c.2 1 .3 2.1.3 3.2 0 15.6-16.4 28.1-36.5 28.1-20.2 0-36.6-12.6-36.6-28.1 0-1.1.1-2.2.3-3.2h72.5z"/><path class="est0" d="M334.4 146.2c5.3 0 9.6 4.3 9.6 9.6s-4.3 9.6-9.6 9.6-9.6-4.3-9.6-9.6 4.3-9.6 9.6-9.6z"/></g></svg></svg>