<?xml version="1.0" encoding="utf-8"?><svg viewBox="0 0 686 487" xmlns="http://www.w3.org/2000/svg" xmlns:xlink="http://www.w3.org/1999/xlink"><style>:root>svg{display:none}:root>svg:target{display:block}</style><svg id="" viewBox="0 0 686 487" xmlns="http://www.w3.org/2000/svg"><style>.ast0{fill:#fcb712}</style><g id="aLivello_10"><path class="ast0" d="M478.4 288.1s57.4 14.9 52.5 36c-5.3 23-25.6 31.9-22.5 35s14.4-.1 23.6.3c9.2.4 24.4 20 6.9 41.2-14.5 17.6-47.6 3.1-53.6-13.1-6.4-17.4 3.2-31.4 12.4-39.5 28.7-25 4.6-26.4-24.8-32.9.2.1-16.7-17 5.5-27zM220.3 319.3s-35.6-9.5-49.5-.3c-13.9 9.3-24.1 33.9-11.4 44 12.7 10.1 21.7 3.4 26.2 9.1 4.3 5.5-7.7 12.8-13.8 10.7-.3-.1-.5-.2-.8-.3-6.1-2.6 24.5 12.4 15.1 26s-38.5 24.2-52.4 3.7c-18.6-27.5-5.7-44.1-.7-46.8 0 0-10.2-81.4 65.2-90.4 0 .2 26 22.9 22.1 44.3z"/></g></svg><svg id="" viewBox="0 0 686 487" xmlns="http://www.w3.org/2000/svg"><style>.bst0{fill:#07235b}</style><path class="bst0" d="M258.2 393.2c0 17.5 6.4 31.2 16.9 41 0 0-1.2 4.4-2.8 9.9-.5 1.8-1.1 3.8-1.6 5.7C261 468 237 464 222 474c33 15 72 10 105-1 1.5-.5.5-2.5-.9-5.2C323 462 320 453 323 450c12-11 32-7 45 3 3 2-3 10-5.6 16.3-1.2 2.9-1.9 5.2-.4 5.7 29 11 70 14 97-2-11.4-2.6-26.6-1.4-35.7-10-1.3-1.2-2.5-2.7-3.5-4.3-5.8-13.6-8.8-25.6 4-36.5.9-1.6 1.8-3.3 2.5-5 3.1-7 4.7-14.9 4.7-23.9" id="bLivello_4"/></svg><svg id="" viewBox="0 0 686 487" xmlns="http://www.w3.org/2000/svg"><style>.cst0{fill:#ececd2}.cst1{fill:#89c742}.cst2{fill:#46a73e}</style><g id="cLivello_1_1_"><path class="cst0" d="M254.5 83.3s-22.9-2.1-24.6-26.8c-1.7-24.6-34.4 42 0 57.6M434.9 90s22.9-2.1 24.6-26.8c1.7-24.6 34.4 42 0 57.6"/><path class="cst1" d="M549.4 256.1C549.4 361.5 457 447 343 447s-206.4-85.5-206.4-190.9S229 65.2 343 65.2s206.4 85.5 206.4 190.9z"/><path class="cst2" d="M310.4 73.9c-23.8-3.2-10.8-29.2 5.4-19.5-15.1-22.7 19.5-42.1 27-6.5h3.2c7.6-35.7 42.1-16.2 27 6.5 16.2-9.7 29.2 16.2 5.4 19.5M479.1 114.1c15.2 26.3 23.8 56.2 23.8 87.9 0 104-92.2 188.3-205.9 188.3-50.2 0-96.3-16.5-132-43.8C199.5 406.3 268.1 447 347.1 447 460.8 447 553 362.7 553 258.7c0-58.1-28.8-110-73.9-144.6z"/></g></svg><svg id="" viewBox="0 0 686 487" xmlns="http://www.w3.org/2000/svg"><style>.dst0{fill:#9f446d}.dst1{fill:#e8cbd9}</style><g id="dLivello_7"><path class="dst0" d="M314 255.8h67.7c5.1 0 5.1-7.9 0-7.9H314c-5.1 0-5.1 7.9 0 7.9z"/><path class="dst1" d="M322.3 252.5c0 10.6 5.1 23.5 11.4 23.5s11.4-12.9 11.4-23.5h-22.8z"/></g></svg><svg id="" viewBox="0 0 686 487" xmlns="http://www.w3.org/2000/svg"><style>.est0{fill:#fff}.est1{fill:#46a73e}</style><g id="eLivello_1_1_"><path class="est0" d="M413.5 169.6c0 38.1-30.9 68.9-68.9 68.9-38.1 0-68.9-30.9-68.9-68.9 0-38.1 30.9-68.9 68.9-68.9 38-.1 68.9 30.8 68.9 68.9z"/><path class="est1" d="M389.6 169.6c0 24.9-20.1 45-45 45s-45-20.1-45-45 20.1-45 45-45c24.8 0 45 20.1 45 45z"/><path class="est0" d="M366.1 160.2c0 11.9-9.7 21.6-21.6 21.6s-21.6-9.7-21.6-21.6c0-11.9 9.7-21.6 21.6-21.6 12 0 21.6 9.7 21.6 21.6zM332.4 191.6c0 4.4-3.6 8-8 8s-8-3.6-8-8 3.6-8 8-8 8 3.6 8 8z"/></g></svg></svg>