<?xml version="1.0" encoding="utf-8"?><svg viewBox="0 0 686 487" xmlns="http://www.w3.org/2000/svg" xmlns:xlink="http://www.w3.org/1999/xlink"><style>:root>svg{display:none}:root>svg:target{display:block}</style><svg id="" viewBox="0 0 686 487" xmlns="http://www.w3.org/2000/svg"><style>.ast0{fill:#a11b10}</style><g id="aLivello_7"><path class="ast0" d="M479.1 320.7l97.3-85.3 40.1 13.7 39.3-44.5-42.2 26.9 34.2-48.4-49.2 31.7 19.7-30-35.5 19.3-15.5 21.5L466 304.8zM210.2 320.7l-87.8-94.9-41.3 9.4-34.4-48.4L85.9 218 57 166.3l45.5 36.6L86.1 171l33.3 22.9 13.2 23.1 92.4 89.3z"/></g></svg><svg id="" viewBox="0 0 686 487" xmlns="http://www.w3.org/2000/svg"><style>.bst0{fill:#82387f}</style><path class="bst0" d="M258.2 393.2c0 17.5 6.4 31.2 16.9 41l-8.8 31.2c-3.2.8-5 8.7-5 9.8 0 3 15 5.5 33.5 5.5s33.5-2.5 33.5-5.5c0-.9-1.2-8.6-3.4-9.3l-3.7-13.8c2.4.2 4.9.3 7.4.3h31.9c2.3 0 4.5-.1 6.8-.2l-3.9 15.3c-2.2.7-3.4 7.4-3.4 8.3 0 3 15 5.5 33.5 5.5s33.5-2.5 33.5-5.5c0-1.1-1.8-8-5-8.8l-8.8-32c11-9.8 17.7-23.8 17.7-41.7" id="bLivello_1_1_"/></svg><svg id="" viewBox="0 0 686 487" xmlns="http://www.w3.org/2000/svg"><style>.cst0{fill:#07235b}.cst1{fill:#145cee}</style><g id="cLivello_8"><path class="cst0" d="M422.3 112.9s48.1-31.1 30-55.8c-18.2-24.7 2.5-58.4 41.5-48.5s38 83.9-47.9 119.8"/><path class="cst1" d="M438.9 119.1s68.7-34.4 53.9-83c-11.9-13-19.1-2.2-20.4 17.2-1.3 19.3 5.8 26.7-33.5 65.8z"/><path class="cst0" d="M257.7 109.5s-48.6-29.7-30.9-54c17.8-24.2-3.5-56.8-42.3-46.7s-36.7 82 49.8 116"/><path class="cst1" d="M241.2 115.8S172 83.1 186 35.7c11.6-12.8 19.1-2.3 20.6 16.5 1.6 18.7-5.3 26 34.6 63.6z"/><g><path class="cst1" d="M550.2 262.3v-.2c0-13.1-9.4-24-21.9-26.3 1-.5 1.9-1.1 2.9-1.7 12.2-8.4 15.2-25.1 6.8-37.3-6.8-9.8-18.9-13.6-29.7-10.4 9.5-8.9 11.4-23.7 3.7-34.8-7.7-11-22.1-14.5-33.8-8.8-.6-.7-1.3-1.4-2-2.1 6.4-11.7 3.1-26.7-8-34.6-10.7-7.6-25.1-6.2-34.2 2.6-.8-.4-1.7-.9-2.5-1.3 2.4-12.7-4.5-25.6-17-30.2-13-4.8-27.3 1.1-33.3 13.2-1.1-.2-2.3-.4-3.4-.6C376.3 76.4 365 66 351.2 66s-25.1 10.4-26.6 23.8l-3.6.6c-6-12.1-20.3-17.9-33.3-13.1-12.5 4.6-19.4 17.5-17 30.1-.8.4-1.7.9-2.5 1.3-9.1-8.8-23.4-10.1-34.1-2.5-11.1 7.9-14.4 22.8-8.1 34.5-.7.7-1.3 1.4-2 2.1-11.7-5.7-26.1-2.2-33.7 8.8-7.7 11.1-5.8 25.9 3.7 34.8-10.8-3.2-22.9.6-29.7 10.4-8.4 12.2-5.4 28.9 6.8 37.3.9.6 1.9 1.2 2.9 1.7-12.4 2.3-21.9 13.2-21.9 26.3v.2c0 13.1 9.4 24 21.9 26.3-1 .5-1.9 1.1-2.9 1.7-12.2 8.4-15.2 25.1-6.8 37.3 6.8 9.8 18.9 13.6 29.7 10.4-9.5 8.9-11.4 23.7-3.7 34.8 7.7 11.1 22.2 14.5 33.9 8.7.6.7 1.3 1.3 1.9 2-6.4 11.8-3.2 26.7 8 34.7 10.8 7.6 25.2 6.2 34.3-2.7.8.4 1.6.8 2.4 1.3-2.6 12.7 4.4 25.7 17 30.4 13 4.8 27.4-1.1 33.4-13.4 1.1.2 2.2.4 3.3.5 1.4 13.5 12.8 24.1 26.7 24.1 13.9 0 25.3-10.6 26.7-24.1 1.1-.2 2.3-.4 3.4-.6 6 12.3 20.4 18.2 33.4 13.4 12.6-4.7 19.5-17.7 17-30.4l2.4-1.2c9.1 9 23.6 10.4 34.3 2.8 11.2-8 14.5-23 8-34.8.6-.7 1.3-1.3 1.9-2 11.7 5.9 26.3 2.4 34-8.7 7.7-11.1 5.8-25.9-3.7-34.8 10.8 3.2 22.9-.6 29.7-10.4 8.4-12.2 5.4-28.9-6.8-37.3-.9-.6-1.9-1.2-2.9-1.7 12.1-2.3 21.6-13.2 21.6-26.3z"/><path class="cst0" d="M550.4 263.7v-.2c0-12.7-8.9-23.4-20.8-26.1-2.7 1.7-5.8 2.9-9 3.5 1 .5 1.9 1.1 2.9 1.7 12.2 8.4 15.2 25.1 6.8 37.3-6.8 9.8-18.9 13.6-29.7 10.4 9.5 8.9 11.4 23.7 3.7 34.8-7.7 11.1-22.3 14.6-34 8.7-.6.7-1.3 1.3-1.9 2 6.5 11.8 3.3 26.8-8 34.8-10.8 7.7-25.2 6.2-34.3-2.8l-2.4 1.2c2.6 12.7-4.4 25.8-17 30.4-13.1 4.8-27.5-1.1-33.4-13.4-1.1.2-2.3.4-3.4.6-1.4 13.5-12.8 24.1-26.7 24.1-13.9 0-25.3-10.6-26.7-24.1-1.1-.2-2.2-.4-3.3-.5-6 12.3-20.4 18.2-33.4 13.4-12.5-4.6-19.5-17.7-17-30.4-.8-.4-1.6-.8-2.4-1.3-9.1 8.9-23.5 10.4-34.3 2.7-11.2-8-14.4-22.9-8-34.7-.7-.7-1.3-1.3-1.9-2-11.7 5.8-26.2 2.3-33.9-8.7-7.7-11.1-5.8-25.9 3.7-34.8-4.3 1.3-8.9 1.4-13.2.5-.6.3-1.1.6-1.7 1-12.2 8.4-15.2 25.1-6.8 37.3 6.8 9.8 18.9 13.6 29.7 10.4-9.5 8.9-11.4 23.7-3.7 34.8 7.7 11.1 22.2 14.5 33.9 8.7.6.7 1.3 1.3 1.9 2-6.4 11.8-3.2 26.7 8 34.7 10.8 7.6 25.2 6.2 34.3-2.7.8.4 1.6.8 2.4 1.3-2.6 12.7 4.4 25.7 17 30.4 13 4.8 27.4-1.1 33.4-13.4 1.1.2 2.2.4 3.3.5 1.4 13.5 12.8 24.1 26.7 24.1 13.9 0 25.3-10.6 26.7-24.1 1.1-.2 2.3-.4 3.4-.6 6 12.3 20.4 18.2 33.4 13.4 12.6-4.7 19.5-17.7 17-30.4l2.4-1.2c9.1 9 23.6 10.4 34.3 2.8 11.2-8 14.5-23 8-34.8.6-.7 1.3-1.3 1.9-2 11.7 5.9 26.3 2.4 34-8.7 7.7-11.1 5.8-25.9-3.7-34.8 10.8 3.2 22.9-.6 29.7-10.4 8.4-12.2 5.4-28.9-6.8-37.3-.9-.6-1.9-1.2-2.9-1.7 12.3-2.4 21.8-13.3 21.8-26.4z"/></g></g></svg><svg id="" viewBox="0 0 686 487" xmlns="http://www.w3.org/2000/svg"><style>.dst0{fill:#1e7794}.dst1{fill:#d7e6ed}</style><g id="dLivello_9"><path class="dst0" d="M343.9 266.4c68 0 123.2 1.1 123.2 2.5s-55.2 2.4-123.2 2.4c-68.1 0-123.3-1.1-123.3-2.4.2-1.4 55.2-2.5 123.3-2.5z"/><path class="dst1" d="M228.4 269.4l15.6 50.4 12.8-36.4 24.1 57.9 30.4-56.2 18.2 34.2 16-34.2 22.6 38.6 23.1-40.8 18.8 49.6 25.4-54 17.6 18.7 8.2-27.2z"/></g></svg><svg id="" viewBox="0 0 686 487" xmlns="http://www.w3.org/2000/svg"><style>.est0{fill:#fff}.est1{fill:#07235b}</style><g id="eLivello_11"><path class="est0" d="M450.9 157.9c-.2 27.8-22.8 50.2-50.6 50-27.8-.2-50.2-22.9-50-50.7s22.9-50.2 50.7-50c27.8.2 50.1 22.9 49.9 50.7z"/><path class="est1" d="M420.4 166.8c-.1 16.8-13.8 30.3-30.7 30.2-16.8-.1-30.3-13.8-30.2-30.7.1-16.8 13.8-30.3 30.6-30.2 16.9.1 30.4 13.8 30.3 30.7z"/><path class="est0" d="M395.7 157.4c-.1 6.8-5.6 12.2-12.4 12.2s-12.2-5.6-12.2-12.3c0-6.8 5.6-12.2 12.3-12.2 6.9-.1 12.4 5.5 12.3 12.3zM406.4 178.1c0 3.4-2.8 6.1-6.1 6-3.4 0-6.1-2.8-6.1-6.1 0-3.4 2.8-6.1 6.1-6 3.4 0 6.1 2.7 6.1 6.1z"/><g><path class="est0" d="M235 166.4c-.1 22.4 17.9 40.6 40.2 40.8 22.4.1 40.6-17.9 40.8-40.2.2-22.4-17.9-40.6-40.2-40.8-22.4-.2-40.7 17.8-40.8 40.2z"/><path class="est1" d="M259.5 173.9c-.1 13.5 10.8 24.6 24.3 24.7 13.5.1 24.6-10.8 24.7-24.3s-10.8-24.6-24.3-24.7c-13.6-.2-24.7 10.7-24.7 24.3z"/><path class="est0" d="M279.4 166.6c0 5.5 4.4 9.9 9.8 9.9 5.5 0 9.9-4.4 9.9-9.8s-4.3-9.9-9.8-9.9c-5.4-.1-9.8 4.3-9.9 9.8zM270.6 183.2c0 2.7 2.2 4.9 4.9 4.9s4.9-2.2 4.9-4.9-2.2-4.9-4.9-4.9-4.9 2.1-4.9 4.9z"/></g></g></svg></svg>