<?xml version="1.0" encoding="utf-8"?><svg viewBox="0 0 686 487" xmlns="http://www.w3.org/2000/svg" xmlns:xlink="http://www.w3.org/1999/xlink"><style>:root>svg{display:none}:root>svg:target{display:block}</style><svg id="" viewBox="0 0 686 487" xmlns="http://www.w3.org/2000/svg"><style>.ast0{fill:#a24e99}.ast1{fill:#82387f}.ast2{fill:#ebd8df}</style><g id="aLivello_9"><path class="ast0" d="M205.2 299.1l-36.3 59.1-22.7-.6-13.1 28.9 17.3-20.4-9.8 30.2 20.2-24-5.4 18.5 15.2-15.5 4.5-13.5 39.4-56.6z"/><path class="ast1" d="M158.2 381.2l-2.8 9.6 15.2-15.5 4.5-13.5 39.4-56.6-5.3-3.5-38.1 58.9-7.5 16.8z"/><path class="ast2" d="M227.4 305.9c-2.1 3.6-10.1 2.6-17.8-2s-12.2-11.2-10.1-14.7c.2-.3.4-.5.5-.7 3.3 3.9 8 7.8 13.7 11.3 4.7 2.8 9.5 4.9 13.7 6.1z"/><g><path class="ast0" d="M487.6 300.8l15.4 67.7 21.7 6.6 3.1 31.7-9.9-25-.3 31.8-11.4-29.2-1 19.3-9.3-19.6.1-14.3-19.2-66.2z"/><path class="ast1" d="M505.7 393.7l-.5 10-9.3-19.6.1-14.3-19.2-66.2 6.2-1.6 17.1 68 1.8 18.3z"/><path class="ast2" d="M464.4 300.1c.9 4.1 8.7 5.7 17.5 3.8 8.8-1.9 15.2-6.7 14.3-10.6-.1-.3-.2-.6-.3-.8-4.3 2.6-10.1 4.9-16.6 6.3-5.3 1.1-10.4 1.5-14.9 1.3z"/></g></g></svg><svg id="" viewBox="0 0 686 487" xmlns="http://www.w3.org/2000/svg"><style>.bst0{fill:#1e7794}</style><path class="bst0" d="M258.2 393.2c0 17.5 6.4 31.2 16.9 41l-8.8 31.2c-3.2.8-5 8.7-5 9.8 0 3 15 5.5 33.5 5.5s33.5-2.5 33.5-5.5c0-.9-1.2-8.6-3.4-9.3l-3.7-13.8c2.4.2 4.9.3 7.4.3h31.9c2.3 0 4.5-.1 6.8-.2l-3.9 15.3c-2.2.7-3.4 7.4-3.4 8.3 0 3 15 5.5 33.5 5.5s33.5-2.5 33.5-5.5c0-1.1-1.8-8-5-8.8l-8.8-32c11-9.8 17.7-23.8 17.7-41.7" id="bLivello_1_1_"/></svg><svg id="" viewBox="0 0 686 487" xmlns="http://www.w3.org/2000/svg"><style>.cst0{fill:#f27825}.cst1{fill:#d03c0f}</style><g id="cLivello_7"><path class="cst0" d="M310.4 74.9c-23.8-3.2-10.8-29.2 5.4-19.5-15.1-22.7 19.5-42.1 27-6.5h3.2c7.6-35.7 42.1-16.2 27 6.5 16.2-9.7 29.2 16.2 5.4 19.5M420.2 67.6s36.8-3.4 39.6-43c2.8-39.6 55.2 67.5 0 92.5"/><path class="cst1" d="M463.1 25.2c8.6 24.6 11.4 62.5-16.5 77.5l15.8 19.8c52.5-23.9 7.6-122 .7-97.3z"/><path class="cst0" d="M266.9 65.6s-36.8-3.4-39.6-43-55.2 67.5 0 92.5"/><path class="cst1" d="M223.9 17.9c-8.6 24.6-11.4 62.5 16.5 77.5l-15.8 19.8c-52.5-23.9-7.5-121.9-.7-97.3z"/><g><path class="cst0" d="M492.2 139.1c-47.9-89-136.9-90.2-136.9-90.2h-28.4s-89 1.2-136.9 90.2c-54.7 118.8 3 214.4 44.8 262.9-5.4 5.2-8.8 12.4-8.8 20.6 0 15.9 12.9 28.8 28.7 28.8 10.8 0 20.2-6.8 25.1-14.7h7.3c4.9 7.9 14.3 14.7 25.1 14.7s20.2-6.8 25.1-14.7h7.3c4.9 7.9 14.3 14.7 25.1 14.7s20.2-6.8 25.1-14.7h7.3c4.9 7.9 14.3 14.6 25.1 14.6 15.9 0 28.7-12.9 28.7-28.8 0-7.4-7.4-19.1-7.4-19.1s106.9-153.3 43.7-264.3z"/><path class="cst1" d="M512.1 211.4C496.9 316.4 407.6 397 299.7 397c-28.8 0-56.4-5.8-81.5-16.3 6.8 9.9 15.8 22.1 15.8 22.1s-8.3 7.4-8.3 21c0 15.9 16.8 33.6 32.4 33.6 10.7 0 19.9-6.1 24.8-14h7.2c4.8 7.9 14.1 14.7 24.8 14.7 10.7 0 19.9-6.8 24.8-14.7h7.2c4.8 7.9 14.1 14.7 24.8 14.7 10.7 0 19.9-6.8 24.8-14.7h7.2c4.8 7.9 14.1 14 24.8 14 15.7 0 28.3-13.3 28.3-29.1.6-11.9-5.3-21.2-5.3-21.2s73.5-106.6 60.6-195.7z"/></g></g></svg><svg id="" viewBox="0 0 686 487" xmlns="http://www.w3.org/2000/svg"><style>.dst0{fill:#1e7794}.dst1{fill:#d7e6ed}</style><g id="dLivello_7"><path class="dst0" d="M314 255.8h67.7c5.1 0 5.1-7.9 0-7.9H314c-5.1 0-5.1 7.9 0 7.9z"/><path class="dst1" d="M322.3 252.5c0 10.6 5.1 23.5 11.4 23.5s11.4-12.9 11.4-23.5h-22.8z"/></g></svg><svg id="" viewBox="0 0 686 487" xmlns="http://www.w3.org/2000/svg"><style>.est0{fill:#fff}.est1{fill:#07235b}</style><g id="eLivello_8"><ellipse class="est0" cx="261.2" cy="151.1" rx="41.4" ry="41.4"/><path class="est1" d="M293.6 154.7c0 14.9-12.1 27.1-27.1 27.1-14.9 0-27.1-12.1-27.1-27.1 0-14.9 12.1-27.1 27.1-27.1s27.1 12.2 27.1 27.1z"/><path class="est0" d="M283 149.1c0 7.2-5.8 13-13 13s-13-5.8-13-13 5.8-13 13-13 13 5.8 13 13zM262.7 168c0 2.6-2.1 4.8-4.8 4.8-2.6 0-4.8-2.1-4.8-4.8 0-2.6 2.1-4.8 4.8-4.8 2.7 0 4.8 2.1 4.8 4.8z"/><g><ellipse class="est0" cx="425.6" cy="151.1" rx="41.4" ry="41.4"/><path class="est1" d="M393.2 154.7c0 14.9 12.1 27.1 27.1 27.1 14.9 0 27.1-12.1 27.1-27.1 0-14.9-12.1-27.1-27.1-27.1-15 0-27.1 12.2-27.1 27.1z"/><path class="est0" d="M403.7 149.1c0 7.2 5.8 13 13 13s13-5.8 13-13-5.8-13-13-13-13 5.8-13 13zM424 168c0 2.6 2.1 4.8 4.8 4.8 2.6 0 4.8-2.1 4.8-4.8 0-2.6-2.1-4.8-4.8-4.8s-4.8 2.1-4.8 4.8z"/></g><g><ellipse class="est0" cx="343.4" cy="195.1" rx="41.4" ry="41.4"/><path class="est1" d="M375.8 198.7c0 14.9-12.1 27.1-27.1 27.1-14.9 0-27.1-12.1-27.1-27.1 0-14.9 12.1-27.1 27.1-27.1 15 0 27.1 12.2 27.1 27.1z"/><path class="est0" d="M365.3 193.1c0 7.2-5.8 13-13 13s-13-5.8-13-13 5.8-13 13-13c7.1 0 13 5.8 13 13zM345 212c0 2.6-2.1 4.8-4.8 4.8-2.6 0-4.8-2.1-4.8-4.8 0-2.6 2.1-4.8 4.8-4.8 2.6 0 4.8 2.1 4.8 4.8z"/></g></g></svg></svg>